<svg width="24" height="24" xmlns="http://www.w3.org/2000/svg" xmlns:xlink="http://www.w3.org/1999/xlink">
    <defs>
        <filter x="-.9%" y="-5.2%" width="101.8%" height="113.3%" filterUnits="objectBoundingBox" id="b">
            <feOffset dy="3" in="SourceAlpha" result="shadowOffsetOuter1"/>
            <feGaussianBlur stdDeviation="4" in="shadowOffsetOuter1" result="shadowBlurOuter1"/>
            <feColorMatrix values="0 0 0 0 0 0 0 0 0 0 0 0 0 0 0 0 0 0 0.24 0" in="shadowBlurOuter1"/>
        </filter>
        <rect id="a" x="0" y="0" width="1540" height="203" rx="2"/>
    </defs>
    <g fill="none" fill-rule="evenodd">
        <path fill="#F6F6F6" d="M-1588-966H332V242h-1920z"/>
        <g transform="translate(-1268 -21)">
            <use fill="#000" filter="url(#b)" xlink:href="#a"/>
            <use fill="#FFF" xlink:href="#a"/>
        </g>
        <path d="M0 0h24v24H0z"/>
        <path d="m3.107 19.095.113-.009c.321 0 .606-.09.856-.272.249-.182.47-.42.664-.713a5.17 5.17 0 0 0 .507-1.002c.144-.376.263-.75.357-1.126.094-.375.172-.739.233-1.09.06-.352.108-.651.141-.898a9.523 9.523 0 0 1 1.495-.263c.499-.047.958-.07 1.38-.07.254 0 .512.008.772.026.26.017.534.05.822.096.178.88.308 1.765.39 2.656.084.891.148 1.747.192 2.568l1.662-.088a53.222 53.222 0 0 0-.183-2.568 27.947 27.947 0 0 0-.3-2.216c.156.047.316.091.483.132.166.041.337.09.515.15l.448-1.689c-.664-.2-1.285-.358-1.86-.475a22.71 22.71 0 0 0-.466-1.477 12.94 12.94 0 0 0-.615-1.46 8.702 8.702 0 0 0-.797-1.31 4.934 4.934 0 0 0-1.014-1.03 5.903 5.903 0 0 0-1.196-.694A3.318 3.318 0 0 0 6.376 6a2.364 2.364 0 0 0-1.162.317 1.34 1.34 0 0 0-.432.404c-.111.164-.166.364-.166.598.022.891.022 1.73 0 2.515-.023.786-.061 1.525-.117 2.217l-.05.633a6.46 6.46 0 0 0-1.76 1.187 5.497 5.497 0 0 0-.715.827c-.21.299-.382.612-.515.94a4.26 4.26 0 0 0-.241.995c-.04.334-.014.665.074.993.1.364.27.666.507.906.238.24.524.408.856.501.188.06.377.077.565.053l-.113.01zM6.16 12.14c.055-.657.091-1.346.108-2.067.016-.721.02-1.492.008-2.313a.765.765 0 0 1 .208-.009c.083.006.185.02.307.044.432.106.817.305 1.155.598.338.293.634.636.889 1.03a8.1 8.1 0 0 1 .664 1.257c.189.445.35.873.482 1.284a9.193 9.193 0 0 0-1.113-.07c-.443 0-.892.017-1.346.052-.454.035-.908.1-1.362.194zm-2.917 5.188c-.188-.023-.3-.088-.338-.193a.72.72 0 0 1-.042-.326c.01-.123.08-.284.211-.483.132-.188.32-.381.564-.58.245-.2.574-.417.987-.651a.488.488 0 0 1 .113-.053l.17-.106a.488.488 0 0 0 .112-.053c-.038.094-.07.185-.099.273a4.095 4.095 0 0 1-.098.273c-.02.082-.08.225-.184.43a6.691 6.691 0 0 1-.366.634c-.141.217-.301.41-.48.58-.178.17-.362.255-.55.255zm12.67 1.619v-.018c.465.012.914.009 1.346-.009.432-.017.842-.044 1.23-.079.41-.059.858-.144 1.345-.255a5.391 5.391 0 0 0 1.354-.501 3.172 3.172 0 0 0 1.039-.88c.277-.363.415-.82.415-1.372 0-.34-.086-.645-.257-.914a2.308 2.308 0 0 0-.682-.686 3.479 3.479 0 0 0-.98-.44 4.2 4.2 0 0 0-1.155-.158c.421-.094.809-.232 1.163-.414.355-.181.665-.395.93-.642a3.95 3.95 0 0 0 .665-.791c.178-.282.305-.563.383-.844.155-.587.11-1.185-.133-1.795-.2-.457-.48-.84-.84-1.152a4.777 4.777 0 0 0-1.196-.756 7.268 7.268 0 0 0-1.37-.448 12.6 12.6 0 0 0-1.363-.23 16.843 16.843 0 0 0-1.47-.113 20.585 20.585 0 0 0-1.587.008h-.499v12.489h1.662zm0-5.752V8.199c.299.011.593.026.88.044.289.017.571.044.848.079.51.047 1.041.146 1.595.299a3.964 3.964 0 0 1 1.445.72c.167.153.288.323.366.511.055.14.086.258.091.352a.686.686 0 0 1-.025.246c-.055.223-.18.437-.373.642a3.585 3.585 0 0 1-.657.545 5.635 5.635 0 0 1-.756.414c-.26.117-.484.21-.673.281-.387.164-.808.32-1.262.466-.454.147-.947.279-1.48.396zm1.246 3.975c-.399.012-.814.012-1.246 0v-2.163c.465-.07.905-.124 1.32-.159.416-.035.818-.047 1.205-.035l.59.044c.238.018.48.05.723.097.244.047.468.114.673.202.205.088.357.202.457.343a.39.39 0 0 1 .066.114.584.584 0 0 1 .034.22c0 .164-.067.311-.2.44a2.186 2.186 0 0 1-.54.325 5.563 5.563 0 0 1-.64.229 6.615 6.615 0 0 1-.672.158 11.566 11.566 0 0 1-1.77.185z" fill="#000" fill-rule="nonzero"/>
    </g>
</svg>
