<?xml version="1.0" encoding="UTF-8"?>
<svg width="223px" height="41px" viewBox="0 0 223 41" version="1.1" xmlns="http://www.w3.org/2000/svg" xmlns:xlink="http://www.w3.org/1999/xlink">
    <title>logo</title>
    <g id="Page-1" stroke="none" stroke-width="1" fill="none" fill-rule="evenodd">
        <g id="logo" transform="translate(0.000000, 0.991474)" fill="#FFFFFF" fill-rule="nonzero">
            <path d="M20.81,27.2285257 L20.81,27.1585257 C20.81,26.9385257 20.81,26.8285257 20.44,26.8285257 L20.26,26.8285257 L20.26,27.5585257 L20.43,27.5585257 C20.73,27.5585257 20.81,27.4485257 20.81,27.2285257 Z" id="Path"></path>
            <path d="M20.39,21.6685257 L20.54,20.4485257 C19.9921376,20.8293757 19.4134652,21.1638684 18.81,21.4485257 C17.5792487,22.0759955 16.5215642,22.9963184 15.73,24.1285257 C16.6556164,23.2537974 17.7766926,22.6126927 19,22.2585257 C19.4874876,22.124486 19.9549363,21.9260725 20.39,21.6685257 L20.39,21.6685257 Z" id="Path"></path>
            <path d="M15.87,24.8185257 C17.0445555,24.0385223 18.3698201,23.5138674 19.76,23.2785257 C20.4293129,23.1733258 21.075457,22.9534339 21.67,22.6285257 L21.79,21.3385257 C21.0373854,22.0104116 20.1463998,22.5088173 19.18,22.7985257 C17.9209362,23.1751622 16.7806826,23.871027 15.87,24.8185257 L15.87,24.8185257 Z" id="Path"></path>
            <path d="M8.49,23.9285257 C7.24353038,23.7317806 6.07654824,23.1915753 5.12,22.3685257 L5.46,31.0085257 C6.21944891,31.8609999 7.20919875,32.4756866 8.31,32.7785257 C10.3639908,33.1394465 12.2799381,34.0559195 13.85,35.4285257 L13.85,26.6985257 C12.3564252,25.293673 10.4999173,24.3342463 8.49,23.9285257 L8.49,23.9285257 Z M12.31,28.0885257 C12.17,28.1785257 12.07,28.0885257 11.86,28.0285257 C11.683726,27.9420215 11.4946149,27.8846128 11.3,27.8585257 C11.1094495,27.8173319 10.9149479,27.7972111 10.72,27.7985257 C10.5534436,27.7801075 10.3853448,27.8151281 10.24,27.8985257 C10.2209429,27.9179679 10.2209429,27.9490835 10.24,27.9685257 L10.67,31.2985257 C10.6894601,31.3466322 10.6894601,31.4004192 10.67,31.4485257 C10.67,31.5085257 10.58,31.5585257 9.78,31.5585257 C8.98,31.5585257 8.89,31.4985257 8.85,31.4385257 C8.81759354,31.3990744 8.79991709,31.3495803 8.8,31.2985257 L9.11,28.0085257 C9.11,27.9485257 9.11,27.9185257 9.11,27.9085257 C8.91151184,27.826301 8.68848816,27.826301 8.49,27.9085257 C8.1216294,28.0553181 7.73982283,28.165841 7.35,28.2385257 C7.30742485,28.2499895 7.26257515,28.2499895 7.22,28.2385257 C7.03,28.1185257 7.22,27.2385257 7.42,26.7685257 C7.48,26.5985257 7.53,26.4285257 7.69,26.4285257 L7.79,26.4285257 C8.44343082,26.5983839 9.11491957,26.6890349 9.79,26.6985257 L9.8,26.6985257 C10.3394461,26.6730424 10.8752187,26.5960251 11.4,26.4685257 C11.5297119,26.4261778 11.6639783,26.3993245 11.8,26.3885257 C11.8664451,26.3852595 11.9301651,26.4152454 11.97,26.4685257 L11.97,26.5185257 C12.45,28.0085257 12.43,28.0085257 12.31,28.0885257 L12.31,28.0885257 Z" id="Shape"></path>
            <path d="M8.58,23.2785257 C9.97325558,23.5139605 11.3017673,24.0385523 12.48,24.8185257 C11.5633651,23.8779177 10.4200018,23.1891446 9.16,22.8185257 C8.19498506,22.5255556 7.3046693,22.0275246 6.55,21.3585257 L6.68,22.6485257 C7.27162771,22.9679983 7.91470354,23.1812287 8.58,23.2785257 L8.58,23.2785257 Z" id="Path"></path>
            <path d="M9.31,22.2585257 C10.5451542,22.6228854 11.6784398,23.2699881 12.62,24.1485257 C11.827177,23.0136746 10.7655542,22.0929143 9.53,21.4685257 C8.9270944,21.1767354 8.34563647,20.8425642 7.79,20.4685257 L8,21.6685257 C8.40909873,21.9214225 8.84949476,22.1197688 9.31,22.2585257 L9.31,22.2585257 Z" id="Path"></path>
            <path d="M13.42,21.1785257 C13.425525,21.595607 13.7661752,21.9302933 14.183289,21.9284592 C14.6004028,21.9266099 14.9380842,21.5889285 14.9399335,21.1718147 C14.9417676,20.7547009 14.6070813,20.4140507 14.19,20.4085257 C13.7647407,20.4085257 13.42,20.7532664 13.42,21.1785257 L13.42,21.1785257 Z" id="Path"></path>
            <path d="M14.51,26.6985257 L14.51,35.4685257 C16.0635315,34.1002192 17.9622649,33.1837085 20,32.8185257 C21.1093167,32.5199355 22.111341,31.9131734 22.89,31.0685257 L23.2,22.3685257 C22.2434518,23.1915753 21.0764696,23.7317806 19.83,23.9285257 C17.8330609,24.337708 15.990338,25.2971708 14.51,26.6985257 L14.51,26.6985257 Z M18.19,26.4485257 L19.5,26.4485257 L19.5,26.8085257 L18.6,26.8085257 L18.6,27.3885257 L19.37,27.3885257 L19.37,27.7585257 L18.6,27.7585257 L18.6,28.3585257 L19.54,28.3585257 L19.54,28.7385257 L18.19,28.7385257 L18.19,26.4485257 Z M16.29,26.4485257 L16.72,26.4485257 L16.91,27.1485257 L17.13,28.2185257 L17.33,27.1485257 L17.53,26.4485257 L18,26.4485257 L17.39,28.7385257 L16.96,28.7385257 L16.29,26.4485257 Z M18.52,30.7485257 C18.52,31.2285257 18.23,31.4485257 17.75,31.4485257 C17.27,31.4485257 17.01,31.2285257 17.01,30.7485257 L17.01,29.1485257 L17.42,29.1485257 L17.42,30.7385257 C17.42,30.9485257 17.51,31.0885257 17.75,31.0885257 C17.8470364,31.1012726 17.9445706,31.0689129 18.0147429,31.0006898 C18.0849152,30.9324667 18.120009,30.8358826 18.11,30.7385257 L18.11,29.1485257 L18.52,29.1485257 L18.52,30.7485257 Z M20.65,31.4285257 L20.24,31.4285257 L20.24,30.6285257 L20.24,29.9685257 L19.79,30.8885257 L19.7,30.8885257 L19.29,30.0085257 L19.29,30.6685257 L19.29,31.4685257 L18.89,31.4685257 L18.89,29.1485257 L19.28,29.1485257 L19.75,30.1485257 L20.21,29.1485257 L20.61,29.1485257 L20.65,31.4285257 Z M21.24,27.1385257 L21.24,27.2485257 C21.2819132,27.523347 21.1158714,27.7873109 20.85,27.8685257 L21.35,28.7385257 L20.87,28.7385257 L20.42,27.9285257 L20.27,27.9285257 L20.27,28.7385257 L19.86,28.7385257 L19.86,26.4485257 L20.43,26.4485257 C21,26.4485257 21.24,26.6585257 21.24,27.1385257 L21.24,27.1385257 Z" id="Shape"></path>
            <path d="M27,6.75852569 L15.54,0.328525688 C14.6827126,-0.109508563 13.6672874,-0.109508563 12.81,0.328525688 L1.36,6.75852569 C0.563315062,7.27604467 0.0588382044,8.14033222 0,9.08852569 L0,30.2585257 C0.0588382044,31.2067192 0.563315062,32.0710067 1.36,32.5885257 L12.81,39.0085257 C13.6717111,39.4277771 14.6782889,39.4277771 15.54,39.0085257 L27,32.5885257 C27.8004962,32.0732293 28.3088989,31.2085736 28.37,30.2585257 L28.37,9.08852569 C28.3088989,8.13847773 27.8004962,7.27382207 27,6.75852569 Z M23.57,31.2185257 C23.5629028,31.2944927 23.5352461,31.3670916 23.49,31.4285257 C22.5909048,32.3959907 21.4364503,33.0893568 20.16,33.4285257 C16.22,34.2185257 14.59,36.3485257 14.54,36.4285257 C14.4670235,36.556936 14.3368257,36.6424945 14.19,36.6585257 C14.0475668,36.6310163 13.9217695,36.5483495 13.84,36.4285257 C12.3601098,34.8054328 10.3635141,33.7452935 8.19,33.4285257 C6.9058905,33.0818378 5.7537848,32.3613366 4.88,31.3585257 C4.83766767,31.300109 4.81333638,31.230591 4.81,31.1585257 L4.42994994,21.5585257 C4.42761118,21.4188458 4.51090615,21.2919201 4.64,21.2385257 C4.76970532,21.1838958 4.91987795,21.2204243 5.01,21.3285257 C5.32942043,21.6731104 5.68859771,21.978579 6.08,22.2385257 L5.91,20.5985257 C5.89711278,20.4775514 5.96672258,20.3629 6.08,20.3185257 C6.19061203,20.2705227 6.31953274,20.2987241 6.4,20.3885257 C6.70578465,20.7208164 7.04042809,21.0253419 7.4,21.2985257 L7.26,20.0085257 C7.24397897,19.9162614 7.28811953,19.8239675 7.37,19.7785257 C7.45294581,19.7281322 7.55705419,19.7281322 7.64,19.7785257 C8.29846486,20.2556429 9.00177617,20.6675823 9.74,21.0085257 C11.736138,22.0822044 13.3034117,23.8083234 14.18,25.8985257 C15.0484613,23.8063641 16.6135265,22.0787866 18.61,21.0085257 C19.3502492,20.6516976 20.053631,20.2229696 20.71,19.7285257 C20.7898502,19.6799144 20.8901498,19.6799144 20.97,19.7285257 C21.0535459,19.7731668 21.1011787,19.864463 21.09,19.9585257 L20.9,21.3185257 C21.2647208,21.0515864 21.599948,20.7465297 21.9,20.4085257 C21.9852211,20.3196989 22.1160563,20.2919459 22.23,20.3385257 C22.341045,20.3855185 22.4095341,20.4983241 22.4,20.6185257 L22.23,22.2585257 C22.6162753,21.9918348 22.9747462,21.6869671 23.3,21.3485257 C23.390122,21.2404243 23.5402947,21.2038958 23.67,21.2585257 C23.7970938,21.312793 23.8769132,21.440504 23.87,21.5785257 L23.57,31.2185257 Z M7.74,15.8385257 C8.68,15.8385257 8.92,15.4485257 8.92,14.7285257 L10.21,14.7285257 C10.21,16.3285257 9.47,16.9885257 7.74,16.9885257 C6.01,16.9885257 5.33,16.3285257 5.33,14.8285257 L5.33,11.8285257 C5.33,10.2985257 5.99,9.66852569 7.74,9.66852569 C9.49,9.66852569 10.21,10.3085257 10.21,11.9185257 L8.92,11.9185257 C8.92,11.2085257 8.75,10.8085257 7.74,10.8085257 C6.73,10.8085257 6.62,11.2085257 6.62,11.8985257 L6.62,14.7085257 C6.62,15.4485257 6.8,15.8385257 7.74,15.8385257 Z M13.59,12.7685257 L15.49,9.76852569 L17,9.76852569 L14.63,13.3885257 L17.22,17.0085257 L15.64,17.0085257 L13.64,14.0985257 L13.27,14.0985257 L13.27,17.0085257 L12,17.0085257 L12,10.8785257 L11.5,10.8785257 L11.5,9.72852569 L13.29,9.72852569 L13.29,12.7285257 L13.59,12.7685257 Z M15.59,21.1785257 C15.5899858,21.7578137 15.2404856,22.2798651 14.7049025,22.5006031 C14.1693194,22.7213412 13.5534743,22.5971525 13.1452956,22.1860993 C12.7371169,21.7750461 12.6172529,21.1583446 12.841744,20.6243238 C13.0662351,20.0903029 13.5907262,19.7444747 14.17,19.7485257 C14.5509893,19.7458614 14.9172896,19.8953446 15.1876334,20.163811 C15.4579771,20.4322773 15.61,20.7975271 15.61,21.1785257 L15.59,21.1785257 Z M20.73,15.8785257 C21.041103,15.9224568 21.3547649,15.8176215 21.5769303,15.595456 C21.7990958,15.3732906 21.9039311,15.0596287 21.86,14.7485257 L21.86,9.74852569 L23.17,9.74852569 L23.17,14.8385257 C23.17,16.3385257 22.25,17.0485257 20.73,17.0485257 C19.21,17.0485257 18.36,16.3385257 18.36,14.8385257 L18.36,10.8785257 L17.87,10.8785257 L17.87,9.72852569 L19.65,9.72852569 L19.65,14.7285257 C19.67,15.4385257 20,15.8785257 20.75,15.8785257 L20.73,15.8785257 Z M26.58,17.0085257 L25.68,17.0085257 L25.68,10.2985257 C25.6336529,9.65808589 25.2941073,9.07495325 24.76,8.71852569 L15.1,3.29852569 C14.5138042,3.00898381 13.8261958,3.00898381 13.24,3.29852569 L3.59,8.71852569 C3.05321511,9.07386245 2.71012916,9.65673967 2.66,10.2985257 L2.66,17.0085257 L1.77,17.0085257 L1.77,10.2985257 C1.82400065,9.33579665 2.33746204,8.45770326 3.15,7.93852569 L12.8,2.51852569 C13.6626788,2.08834218 14.6773212,2.08834218 15.54,2.51852569 L25.2,7.93852569 C26.012538,8.45770326 26.5259993,9.33579665 26.58,10.2985257 L26.58,17.0085257 Z" id="Shape"></path>
            <polygon id="Path" points="217.84 20.9185257 220.53 20.9185257 220.53 9.56852569 204.95 9.56852569 204.95 12.0185257 217.84 12.0185257"></polygon>
            <polygon id="Path" points="215.53 24.5885257 215.53 17.1785257 212.84 17.1785257 212.84 24.5885257 209.88 24.5885257 209.88 17.1785257 207.18 17.1785257 207.18 24.5885257 202.98 24.5885257 202.98 27.0385257 222.52 27.0385257 222.52 24.5885257"></polygon>
            <path d="M144.69,16.4585257 L152.33,16.4585257 L152.33,14.0085257 L137,14.0085257 L137,12.0085257 L152.31,12.0085257 L152.31,9.56852569 L134.31,9.56852569 L134.31,16.4585257 L142,16.4585257 L142,18.0885257 L133.58,18.0885257 L133.58,20.5385257 L139.88,20.5385257 C138.176495,21.9937845 137.560197,24.3563697 138.335779,26.4583164 C139.111361,28.5602631 141.11453,29.9563107 143.355,29.9563107 C145.59547,29.9563107 147.598639,28.5602631 148.374221,26.4583164 C149.149803,24.3563697 148.533505,21.9937845 146.83,20.5385257 L153.13,20.5385257 L153.13,18.0885257 L144.7,18.0885257 L144.69,16.4585257 Z M143.35,27.4585257 C142.603102,27.4522805 141.89216,27.1369106 141.386244,26.5874145 C140.880329,26.0379184 140.624646,25.3033963 140.68,24.5585257 C140.592739,23.5531325 141.07979,22.5844477 141.938836,22.0548535 C142.797882,21.5252592 143.882118,21.5252592 144.741164,22.0548535 C145.60021,22.5844477 146.087261,23.5531325 146,24.5585257 C146.069931,25.3072729 145.82325,26.0511081 145.319765,26.6096916 C144.81628,27.1682751 144.101964,27.490602 143.35,27.4985257 L143.35,27.4585257 Z" id="Shape"></path>
            <polygon id="Path" points="113.42 22.4285257 110.72 22.4285257 110.72 29.3085257 127.53 29.3085257 127.53 26.8585257 113.42 26.8585257"></polygon>
            <polygon id="Path" points="127.54 8.32852569 124.85 8.32852569 124.85 18.9585257 121.9 18.9585257 121.9 9.56852569 109.91 9.56852569 109.91 12.0185257 119.2 12.0185257 119.2 18.9585257 115.91 18.9585257 115.91 14.2585257 113.22 14.2585257 113.22 18.9585257 108.74 18.9585257 108.74 21.4085257 124.85 21.4085257 124.85 25.1185257 127.54 25.1185257 127.54 16.2085257 130.87 16.2085257 130.87 13.7585257 127.54 13.7585257"></polygon>
            <polygon id="Path" points="73.76 17.4885257 81.23 17.4885257 81.23 15.3885257 66.3 15.3885257 66.3 14.4685257 80.72 14.4685257 80.72 12.5785257 66.3 12.5785257 66.3 11.6685257 81.23 11.6685257 81.23 9.56852569 63.6 9.56852569 63.6 10.1085257 63.6 16.9085257 63.6 17.4885257 71.06 17.4885257 71.06 18.3185257 62.64 18.3185257 62.64 20.4185257 82.19 20.4185257 82.19 18.3185257 73.76 18.3185257"></polygon>
            <polygon id="Path" points="63.6 24.1985257 63.6 25.4085257 63.6 28.1085257 63.6 29.3085257 81.23 29.3085257 81.23 27.2085257 66.3 27.2085257 66.3 26.2985257 81.23 26.2985257 81.23 25.3585257 81.23 22.6685257 81.23 21.2985257 63.6 21.2985257 63.6 23.3985257 78.53 23.3985257 78.53 24.1985257"></polygon>
            <polygon id="Path" points="56.58 16.2085257 59.91 16.2085257 59.91 13.7585257 56.58 13.7585257 56.58 8.36852569 53.89 8.36852569 53.89 29.3085257 56.58 29.3085257"></polygon>
            <polygon id="Path" points="47.74 13.1685257 38.29 23.5585257 40.13 25.2585257 50.95 13.1685257 50.95 10.7285257 38.27 10.7285257 38.27 13.1685257"></polygon>
            <polygon id="Path" points="173.1 14.8185257 171.6 14.8185257 171.6 8.36852569 168.91 8.36852569 168.91 22.4585257 159.69 22.4585257 159.69 12.0185257 165.94 12.0185257 165.94 9.56852569 157 9.56852569 157 10.2685257 157 12.0185257 157 22.4585257 157 23.1585257 157 24.9085257 168.91 24.9085257 168.91 29.3085257 171.6 29.3085257 171.6 17.2685257 173.1 17.2685257 173.1 29.3085257 175.8 29.3085257 175.8 8.36852569 173.1 8.36852569"></polygon>
            <polygon id="Path" points="99.23 17.9385257 88.76 17.9385257 88.76 16.2285257 99.23 16.2285257 99.23 14.4685257 99.23 13.7785257 99.23 9.56852569 86.06 9.56852569 86.06 12.0185257 96.53 12.0185257 96.53 13.7785257 86.06 13.7785257 86.06 15.4885257 86.06 16.2285257 86.06 20.3885257 99.23 20.3885257"></polygon>
            <polygon id="Path" points="104.86 29.3585257 104.86 27.4185257 104.86 22.3085257 104.86 8.32852569 102.16 8.32852569 102.16 22.3085257 88.04 22.3085257 88.04 24.7585257 102.16 24.7585257 102.16 29.3585257"></polygon>
            <polygon id="Path" points="198.66 8.32852569 195.97 8.32852569 195.97 22.3085257 181.84 22.3085257 181.84 24.7585257 195.96 24.7585257 195.96 29.3385257 198.66 29.3385257 198.66 22.3085257 198.66 22.3085257 198.66 16.2085257 201.99 16.2085257 201.99 13.7585257 198.66 13.7585257"></polygon>
            <path d="M185.77,20.8385281 C187.701185,20.8364557 189.444703,19.6819206 190.200437,17.9047471 C190.956171,16.1275737 190.578209,14.0708894 189.24,12.6785257 L192.41,12.6785257 L192.41,10.2385257 L187.11,10.2385257 L187.11,7.77852569 L184.42,7.77852569 L184.42,10.2385257 L179.12,10.2385257 L179.12,12.6785257 L182.29,12.6785257 C180.950532,14.0721997 180.573232,16.1312871 181.331522,17.9093471 C182.089813,19.6874071 183.836998,20.840464 185.77,20.8385281 L185.77,20.8385281 Z M185.77,18.3685257 C184.530648,18.3039047 183.577644,17.2479936 183.64,16.0085257 C183.54246,15.1890488 183.924817,14.3865117 184.622667,13.9459867 C185.320516,13.5054616 186.209484,13.5054616 186.907333,13.9459867 C187.605183,14.3865117 187.98754,15.1890488 187.89,16.0085257 C187.952469,17.2442979 187.005373,18.2986123 185.77,18.3685257 Z" id="Shape"></path>
        </g>
    </g>
</svg>