<svg xmlns="http://www.w3.org/2000/svg" width="56" height="56">
    <g data-name="icon_search">
        <path data-name="패스 1059" d="m130.766 255.481-11.038-11.037a19.526 19.526 0 0 0 4.377-15.3 19.326 19.326 0 0 0-3.6-8.914 19.723 19.723 0 0 0-31.387-.571 19.437 19.437 0 0 0-4.16 10.6 19.695 19.695 0 0 0 32.228 16.728l10.968 10.968a1.952 1.952 0 0 0 1.374.568h.077a1.719 1.719 0 0 0 1.263-.6 1.8 1.8 0 0 0-.1-2.439zm-10.079-23.631a16.086 16.086 0 1 1-4.715-11.383 15.987 15.987 0 0 1 4.715 11.383z" transform="translate(-80.394 -207.664)" style="stroke:#000;stroke-width:.5px"/>
    </g>
</svg>
