<svg xmlns="http://www.w3.org/2000/svg" viewBox="0 0 100 100"><defs><style>.cls-1{fill:#d7d9db;}.cls-2{fill:#fff;isolation:isolate;opacity:0.4;}</style></defs><g id="레이어_2" data-name="레이어 2"><g id="레이어_1-2" data-name="레이어 1"><rect class="cls-1" width="100" height="100"/><path class="cls-2" d="M60.31,50.75l-.61-.32.44-.54a13.13,13.13,0,1,0-20.27,0l.43.54-.6.32a22.13,22.13,0,0,0-11.86,19,1.79,1.79,0,0,0,3.57,0A18.48,18.48,0,0,1,43.24,53.05l.24-.1.23.12a13.29,13.29,0,0,0,12.58,0l.23-.12.24.1A18.48,18.48,0,0,1,68.59,69.8a1.79,1.79,0,0,0,3.57,0h0a22.14,22.14,0,0,0-11.85-19Zm-4.17-1.92a9.38,9.38,0,0,1-12.28,0,9.56,9.56,0,1,1,12.28,0Z"/></g></g></svg>