<svg xmlns="http://www.w3.org/2000/svg" width="102.145" height="86.707" viewBox="0 0 102.145 86.707">
    <defs>
        <style>
            .cls-1{fill:#e8e8e8}.cls-2{fill:#515151}
        </style>
    </defs>
    <g id="그룹_2884" data-name="그룹 2884" transform="translate(-908 -305)">
        <g id="그룹_2882" data-name="그룹 2882" transform="translate(-11.268 -4.286)">
            <g id="그룹_2883" data-name="그룹 2883" transform="translate(924.127 314.145)">
                <path id="패스_125" data-name="패스 125" class="cls-1" d="M1396.935-48.8h-81.944a7.679 7.679 0 0 1-7.671-7.672V-109.6a7.679 7.679 0 0 1 7.671-7.672h81.944a7.68 7.68 0 0 1 7.67 7.672v53.129a7.68 7.68 0 0 1-7.67 7.671zm-81.944-62.092a1.308 1.308 0 0 0-1.291 1.291v53.129a1.308 1.308 0 0 0 1.291 1.291h81.944a1.308 1.308 0 0 0 1.291-1.291V-109.6a1.308 1.308 0 0 0-1.291-1.291z" transform="translate(-1307.32 117.274)"/>
                <path id="패스_126" data-name="패스 126" class="cls-1" d="M1367.653-61.378a3.431 3.431 0 0 1-3.573 3.267h-33.339a3.431 3.431 0 0 1-3.574-3.267 3.43 3.43 0 0 1 3.574-3.268h33.339a3.431 3.431 0 0 1 3.573 3.268z" transform="translate(-1298.98 139.958)"/>
                <path id="사각형_1903" data-name="사각형 1903" class="cls-1" transform="rotate(90 -6.93 58.443)" d="M0 0h12.635v6.803H0z"/>
            </g>
            <g id="그룹_2879" data-name="그룹 2879" transform="translate(919.267 309.286)">
                <path id="패스_125-2" data-name="패스 125" class="cls-2" d="M1396.935-48.8h-81.944a7.679 7.679 0 0 1-7.671-7.672V-109.6a7.679 7.679 0 0 1 7.671-7.672h81.944a7.68 7.68 0 0 1 7.67 7.672v53.129a7.68 7.68 0 0 1-7.67 7.671zm-81.944-62.092a1.308 1.308 0 0 0-1.291 1.291v53.129a1.308 1.308 0 0 0 1.291 1.291h81.944a1.308 1.308 0 0 0 1.291-1.291V-109.6a1.308 1.308 0 0 0-1.291-1.291z" transform="translate(-1307.32 117.274)"/>
                <path id="패스_126-2" data-name="패스 126" class="cls-2" d="M1367.653-61.378a3.431 3.431 0 0 1-3.573 3.267h-33.339a3.431 3.431 0 0 1-3.574-3.267 3.43 3.43 0 0 1 3.574-3.268h33.339a3.431 3.431 0 0 1 3.573 3.268z" transform="translate(-1298.98 139.958)"/>
                <path id="사각형_1903-2" data-name="사각형 1903" class="cls-2" transform="rotate(90 -6.93 58.443)" d="M0 0h12.635v6.803H0z"/>
            </g>
            <path id="패스_127" data-name="패스 127" d="M954.989 179.768a6.005 6.005 0 1 0-8.462 5.476v6.173a2.456 2.456 0 0 0 4.913 0v-6.173a6 6 0 0 0 3.549-5.476z" transform="translate(18.815 160.614)" style="fill:#23a3b9"/>
        </g>
    </g>
</svg>
