<svg xmlns="http://www.w3.org/2000/svg" width="11.5" height="15.66" viewBox="0 0 11.5 15.66">
    <defs>
        <clipPath id="a">
            <path data-name="사각형 1912" style="fill:none" d="M0 0h11.5v15.66H0z"/>
        </clipPath>
    </defs>
    <g data-name="그룹 2911" style="clip-path:url(#a)">
        <path data-name="패스 143" d="M10.471 6.974V4.721a4.721 4.721 0 0 0-9.441 0v2.253H0v8.686h11.5V6.974zm-4.158 4.111c0 .017.01.031.01.048v1.3a.573.573 0 0 1-1.145 0v-1.3c0-.017.009-.032.01-.048a1.076 1.076 0 1 1 1.125 0M9 6.974H2.5V4.721a3.252 3.252 0 0 1 6.5 0z" style="fill:#797b7d"/>
    </g>
</svg>
