<?xml version="1.0" encoding="utf-8"?>
<!-- Generator: Adobe Illustrator 25.4.0, SVG Export Plug-In . SVG Version: 6.00 Build 0)  -->
<svg version="1.1" id="레이어_1" xmlns="http://www.w3.org/2000/svg" xmlns:xlink="http://www.w3.org/1999/xlink" x="0px"
	 y="0px" viewBox="0 0 19 19" style="enable-background:new 0 0 19 19;" xml:space="preserve">
<style type="text/css">
	.st0{fill:#E31212;}
</style>
<path class="st0" d="M9.6,18.2c-4.7,0-8.5-3.8-8.5-8.6c0-4.7,3.8-8.5,8.5-8.5s8.6,3.8,8.6,8.5C18.2,14.4,14.3,18.2,9.6,18.2z
	 M9.6,2.6c-3.8,0-7,3.2-7,7c0,3.9,3.1,7,7,7c3.8,0,7-3.2,7-7C16.6,5.8,13.5,2.6,9.6,2.6z M9.6,6.3c-0.7,0-1.1-0.5-1.1-1.1
	S9,4.1,9.6,4.1s1.1,0.5,1.1,1.1C10.7,5.8,10.3,6.3,9.6,6.3L9.6,6.3z M8.6,14.9V7.4h2v7.5H8.6z"/>
</svg>
