<svg xmlns="http://www.w3.org/2000/svg" width="102.666" height="92.734" viewBox="0 0 102.666 92.734">
    <defs>
        <style>
            .cls-1{fill:#4e8cbf}.cls-2{fill:#d0d0d0}
        </style>
    </defs>
    <g id="그룹_20" data-name="그룹 20" transform="translate(-909 -280.5)">
        <g id="warning-error-svgrepo-com_1_" data-name="warning-error-svgrepo-com (1)" transform="translate(938 266.37)">
            <g id="그룹_3" data-name="그룹 3" transform="translate(19.699 36.285)">
                <g id="그룹_2" data-name="그룹 2">
                    <path id="패스_7" data-name="패스 7" class="cls-1" d="M229.8 127.827a2.375 2.375 0 0 0-2.376 2.369v12.684a2.376 2.376 0 0 0 4.751 0V130.2a2.375 2.375 0 0 0-2.375-2.373zm.792 15.053a.78.78 0 0 1-.792.785.789.789 0 0 1-.792-.785V130.2a.78.78 0 0 1 .792-.785.789.789 0 0 1 .792.785z" transform="translate(-227.429 -127.827)"/>
                </g>
            </g>
            <g id="그룹_5" data-name="그룹 5" transform="translate(19.006 56.082)">
                <g id="그룹_4" data-name="그룹 4">
                    <path id="패스_8" data-name="패스 8" class="cls-1" d="M222.6 356.4a3.168 3.168 0 1 0 3.168 3.168 3.171 3.171 0 0 0-3.168-3.168zm0 4.751a1.584 1.584 0 1 1 1.584-1.584 1.586 1.586 0 0 1-1.584 1.581z" transform="translate(-219.429 -356.397)"/>
                </g>
            </g>
            <g id="그룹_7" data-name="그룹 7" transform="translate(0 27.604)">
                <g id="그룹_6" data-name="그룹 6">
                    <path id="패스_9" data-name="패스 9" class="cls-1" d="m44.244 65.988-21.381-38.01a.824.824 0 0 0-1.38 0L.1 65.988a.792.792 0 0 0 .69 1.18h42.764a.791.791 0 0 0 .69-1.18zm-42.1-.4 20.027-35.6L42.2 65.585z" transform="translate(0 -27.604)"/>
                </g>
            </g>
        </g>
        <g id="monitor-svgrepo-com" transform="translate(909 255.734)">
            <g id="그룹_17" data-name="그룹 17" transform="translate(0 24.766)">
                <g id="그룹_16" data-name="그룹 16">
                    <path id="패스_14" data-name="패스 14" class="cls-2" d="M94.494 24.766H8.172A8.181 8.181 0 0 0 0 32.938v11.876a1.671 1.671 0 0 0 3.341 0V32.938a4.836 4.836 0 0 1 4.831-4.831h86.322a4.836 4.836 0 0 1 4.831 4.831v57.03h-10.47a1.671 1.671 0 1 0 0 3.341h10.469v3.063a4.836 4.836 0 0 1-4.831 4.831H8.172a4.836 4.836 0 0 1-4.831-4.831v-3.063h79.945a1.671 1.671 0 1 0 0-3.341H3.341V50.384a1.671 1.671 0 0 0-3.341 0v45.988a8.181 8.181 0 0 0 8.172 8.172H36.8l-4.109 9.614h-8.025a1.671 1.671 0 1 0 0 3.341H78a1.671 1.671 0 0 0 0-3.341h-8.028l-4.109-9.614h28.631a8.181 8.181 0 0 0 8.172-8.172V32.938a8.181 8.181 0 0 0-8.172-8.172zm-28.156 89.392h-30.01l2.855-6.679h24.3z" transform="translate(0 -24.766)"/>
                </g>
            </g>
            <g id="그룹_19" data-name="그룹 19" transform="translate(49.663 95.191)">
                <g id="그룹_18" data-name="그룹 18">
                    <path id="패스_15" data-name="패스 15" class="cls-2" d="M250.73 376.72a1.67 1.67 0 1 0-.183 2.082 1.682 1.682 0 0 0 .183-2.082z" transform="translate(-247.672 -375.978)"/>
                </g>
            </g>
        </g>
    </g>
</svg>
