<svg id="icon_print_wh" xmlns="http://www.w3.org/2000/svg" width="20.715" height="18.871" viewBox="0 0 20.715 18.871">
    <defs>
        <style>
            .cls-1{fill:#fff}
        </style>
    </defs>
    <g id="그룹_2791" data-name="그룹 2791">
        <path id="패스_75" data-name="패스 75" class="cls-1" d="M740.688 260.54h-.288v-3.832a.642.642 0 0 0-.012-.119.638.638 0 0 0-.036-.112c0-.011-.01-.021-.014-.032a.663.663 0 0 0-.044-.079l-.019-.029a.666.666 0 0 0-.081-.093l-4.5-4.276a.742.742 0 0 0-.1-.076l-.031-.019a.744.744 0 0 0-.081-.041l-.034-.014a.715.715 0 0 0-.115-.033.737.737 0 0 0-.124-.012h-8.989a.7.7 0 0 0-.712.677v8.1h-.291a2.562 2.562 0 0 0-2.622 2.49v5.119a2.562 2.562 0 0 0 2.622 2.49h15.471a2.562 2.562 0 0 0 2.622-2.49v-5.129a2.562 2.562 0 0 0-2.622-2.49zm-4.794-6.462 1.036.983 1.035.983h-2.071zm-8.961-.957h7.537v3.6a.7.7 0 0 0 .712.677h3.791v3.142h-12.04zm14.953 15.028a1.17 1.17 0 0 1-1.2 1.137h-15.469a1.17 1.17 0 0 1-1.2-1.137v-5.119a1.17 1.17 0 0 1 1.2-1.137h15.471a1.17 1.17 0 0 1 1.2 1.137z" transform="translate(-722.595 -251.768)"/>
        <path id="패스_76" data-name="패스 76" class="cls-1" d="M745.38 298.3h-10.826c-.353 0-.64.38-.64.848s.286.848.64.848h10.826a.882.882 0 0 0 0-1.7z" transform="translate(-729.609 -285.363)"/>
    </g>
</svg>
