<svg xmlns="http://www.w3.org/2000/svg" width="27.805" height="23.617" viewBox="0 0 27.805 23.617">
    <path data-name="패스 82" d="M339.074 580.272h-12.76l-.962-2.909a.911.911 0 0 0-.861-.632h-5.416a.91.91 0 0 0-.86.632l-1.171 3.54a1.035 1.035 0 0 0-.029.108v.01a.947.947 0 0 0-.016.162v13.57a3.441 3.441 0 0 0 3.4 3.477h21.171a.919.919 0 0 0 .909-.93v-13.552a3.441 3.441 0 0 0-3.405-3.476zm-19.347-1.68h4.113l.556 1.68h-5.225zm20.927 17.779h-20.262a1.6 1.6 0 0 1-1.579-1.616v-12.623h20.262a1.6 1.6 0 0 1 1.579 1.617z" transform="translate(-316.995 -576.732)" style="fill:#111"/>
    <circle data-name="타원 68" cx="5.19" cy="5.19" r="5.19" transform="translate(17.425 13.237)" style="fill:#23a3b9"/>
    <path data-name="패스 83" d="M367.646 619.665a.771.771 0 0 1-.084 0 .754.754 0 0 1-.522-.3l-1.131-1.532a.754.754 0 1 1 1.213-.9l.649.879 2.236-1.922a.754.754 0 1 1 .983 1.144l-2.852 2.452a.755.755 0 0 1-.492.179z" transform="translate(-345.891 -599.066)" style="fill:#fff"/>
</svg>
