<svg id="logo-white" xmlns="http://www.w3.org/2000/svg" width="223" height="38.834" viewBox="0 0 223 38.834">
    <defs>
        <style>
            .cls-1{fill:#fff}
        </style>
    </defs>
    <g id="그룹_2363" data-name="그룹 2363" transform="translate(35.782 8.157)">
        <g id="그룹_2362" data-name="그룹 2362">
            <path id="패스_44" data-name="패스 44" class="cls-1" d="M567.558 510.939h2.742V499.4h-15.843v2.488h13.1z" transform="translate(-385.092 -497.585)"/>
            <path id="패스_45" data-name="패스 45" class="cls-1" d="M565.752 512.576v-7.528h-2.739v7.528h-3.008v-7.528h-2.741v7.528H553v2.487h19.851v-2.487z" transform="translate(-385.631 -495.496)"/>
            <path id="패스_46" data-name="패스 46" class="cls-1" d="M512.817 506.4h7.761v-2.488h-15.564v-2.025h15.564V499.4h-18.3v7h7.8v1.652h-8.555v2.489h6.392a5.435 5.435 0 1 0 7.066 0h6.394v-2.489h-8.557zm-1.371 11.213a2.737 2.737 0 0 1-2.7-2.945 2.712 2.712 0 1 1 5.4 0 2.739 2.739 0 0 1-2.7 2.95z" transform="translate(-404.676 -497.585)"/>
            <path id="패스_47" data-name="패스 47" class="cls-1" d="M487.31 508.943h-2.745v6.987h17.089v-2.49H487.31z" transform="translate(-410.949 -494.056)"/>
            <path id="패스_48" data-name="패스 48" class="cls-1" d="M502.2 498.484h-2.735v10.8h-2.995v-9.541h-12.182v2.49h9.446v7.052h-3.345v-4.775h-2.737v4.775H483.1v2.488h16.37v3.766h2.73v-9.047h3.383V504H502.2z" transform="translate(-411.492 -497.925)"/>
            <path id="패스_49" data-name="패스 49" class="cls-1" d="M460.207 507.453h7.587v-2.131h-15.173v-.942h14.658v-1.917h-14.658v-.927h15.173V499.4h-17.91v8.05h7.584v.843h-8.557v2.133h19.855V508.3h-8.559z" transform="translate(-424.141 -497.585)"/>
            <path id="패스_50" data-name="패스 50" class="cls-1" d="M449.621 511.054v5.184h17.91v-2.131h-15.173v-.921h15.173V508.1h-17.91v2.131h15.169v.822z" transform="translate(-423.878 -494.367)"/>
            <path id="패스_51" data-name="패스 51" class="cls-1" d="M445.153 506.474h3.383v-2.489h-3.383v-5.471h-2.739v21.274h2.739z" transform="translate(-426.544 -497.914)"/>
            <path id="패스_52" data-name="패스 52" class="cls-1" d="m440.463 502.744-9.61 10.559 1.868 1.725 11-12.283v-2.484H430.83v2.482z" transform="translate(-430.83 -497.267)"/>
            <path id="패스_53" data-name="패스 53" class="cls-1" d="M535.255 505.063h-1.522v-6.548h-2.741v14.32h-9.357v-10.614h6.338v-2.488h-9.079v15.589h12.1v4.466h2.741v-12.234h1.522v12.234H538v-21.274h-2.741z" transform="translate(-398.249 -497.914)"/>
            <path id="패스_54" data-name="패스 54" class="cls-1" d="M479.658 507.911h-10.64v-1.745h10.64V499.4h-13.377v2.49h10.64v1.786h-10.64v6.72h13.377z" transform="translate(-417.714 -497.585)"/>
            <path id="패스_55" data-name="패스 55" class="cls-1" d="M484.837 519.853v-21.369H482.1v14.2h-14.351v2.489h14.344v4.677z" transform="translate(-417.171 -497.925)"/>
            <path id="패스_56" data-name="패스 56" class="cls-1" d="M554.407 498.484h-2.735v14.2h-14.35v2.489h14.347v4.654h2.741V506.483h3.384V504h-3.384z" transform="translate(-391.431 -497.925)"/>
            <path id="패스_57" data-name="패스 57" class="cls-1" d="M542.055 511.348a4.895 4.895 0 0 0 3.536-8.29h3.209v-2.488h-5.381v-2.495h-2.739v2.495h-5.38v2.488h3.217a4.9 4.9 0 0 0 3.537 8.29zm0-2.515a2.4 2.4 0 1 1 2.162-2.389 2.288 2.288 0 0 1-2.162 2.389z" transform="translate(-392.179 -498.076)"/>
        </g>
    </g>
    <g id="그룹_2364" data-name="그룹 2364">
        <path id="패스_58" data-name="패스 58" class="cls-1" d="M419.858 511.849v-.073c0-.218-.059-.326-.37-.326h-.174v.716h.167c.293.001.377-.104.377-.317z" transform="translate(-399.308 -484.971)"/>
        <path id="패스_59" data-name="패스 59" class="cls-1" d="m420.645 508.054.155-1.2a12.5 12.5 0 0 1-1.711 1 8.207 8.207 0 0 0-3.04 2.652 7.9 7.9 0 0 1 3.262-1.866 5.732 5.732 0 0 0 1.334-.586z" transform="translate(-400.516 -486.671)"/>
        <path id="패스_60" data-name="패스 60" class="cls-1" d="M416.148 510.928a9.839 9.839 0 0 1 3.845-1.521 5.716 5.716 0 0 0 1.876-.637l.129-1.275a6.836 6.836 0 0 1-2.58 1.441 7.52 7.52 0 0 0-3.27 1.992z" transform="translate(-400.48 -486.434)"/>
        <path id="패스_61" data-name="패스 61" class="cls-1" d="M411.724 509.778a6.817 6.817 0 0 1-3.324-1.54l.334 8.566a5.894 5.894 0 0 0 2.818 1.747 11.3 11.3 0 0 1 5.47 2.618v-8.658a10.849 10.849 0 0 0-5.298-2.733zm3.776 4.107c-.142.082-.237.026-.447-.064a1.809 1.809 0 0 0-.547-.168 3.431 3.431 0 0 0-.579-.058.748.748 0 0 0-.474.1.06.06 0 0 0-.011.063l.432 3.292a.2.2 0 0 1-.038.145c-.055.056-.1.107-.882.107-.825 0-.875-.053-.921-.115a.173.173 0 0 1-.044-.138l.355-3.23c.007-.057-.008-.082-.019-.09-.075-.086-.325-.1-.615-.044a5.906 5.906 0 0 1-1.125.33.279.279 0 0 1-.131-.033c-.184-.126.051-.966.2-1.451.058-.171.107-.337.264-.337a1.012 1.012 0 0 0 .1.019 8.571 8.571 0 0 0 1.952.264h.055a7.4 7.4 0 0 0 1.581-.232 2.273 2.273 0 0 1 .39-.073.208.208 0 0 1 .169.073.189.189 0 0 1 .029.058c.446 1.483.427 1.497.306 1.582z" transform="translate(-403.346 -486.159)"/>
        <path id="패스_62" data-name="패스 62" class="cls-1" d="M411.436 509.407a9.962 9.962 0 0 1 3.854 1.518 7.6 7.6 0 0 0-3.282-1.989 6.9 6.9 0 0 1-2.578-1.441l.129 1.275a5.721 5.721 0 0 0 1.877.637z" transform="translate(-402.965 -486.434)"/>
        <path id="패스_63" data-name="패스 63" class="cls-1" d="M411.826 508.642a8.073 8.073 0 0 1 3.263 1.862 8.269 8.269 0 0 0-3.051-2.648 14.283 14.283 0 0 1-1.712-1l.166 1.2a5.608 5.608 0 0 0 1.334.586z" transform="translate(-402.634 -486.671)"/>
        <path id="패스_64" data-name="패스 64" class="cls-1" d="M414.383 507.578a.75.75 0 1 0 .755-.751.753.753 0 0 0-.755.751z" transform="translate(-401.133 -486.681)"/>
        <path id="패스_65" data-name="패스 65" class="cls-1" d="M415.168 512.513v8.654a11.205 11.205 0 0 1 5.446-2.614 6.06 6.06 0 0 0 2.858-1.726l.3-8.594a6.738 6.738 0 0 1-3.324 1.547 10.743 10.743 0 0 0-5.28 2.733zm3.628-.248h1.3v.353h-.896v.578h.766v.365h-.766v.592h.937v.374H418.8zm-1.866 0h.417l.189.689.215 1.058.207-1.063.192-.684h.415l-.6 2.258h-.427zm2.2 4.244c0 .47-.284.692-.76.692s-.733-.222-.733-.692v-1.579h.4v1.57c0 .212.092.351.33.351a.317.317 0 0 0 .353-.351v-1.563h.407zm2.1.667h-.4v-.792l.037-.645-.444.9h-.09l-.448-.9.048.645v.792h-.4v-2.252h.386l.462 1 .46-1h.389zm.586-4.239v.114a.544.544 0 0 1-.386.608l.492.86h-.469l-.449-.792h-.151v.792h-.4v-2.259h.566c.54.005.795.209.795.682z" transform="translate(-400.842 -486.161)"/>
        <path id="패스_66" data-name="패스 66" class="cls-1" d="m431.346 498.787-11.3-6.351a3.044 3.044 0 0 0-2.695 0l-11.3 6.351a2.927 2.927 0 0 0-1.345 2.3v20.903a2.917 2.917 0 0 0 1.345 2.3l11.3 6.353a3.045 3.045 0 0 0 2.695 0l11.3-6.353a2.919 2.919 0 0 0 1.351-2.3v-20.905a2.929 2.929 0 0 0-1.351-2.298zm-3.365 24.146a.334.334 0 0 1-.082.2 6.731 6.731 0 0 1-3.285 2.015c-3.892.775-5.5 2.878-5.551 2.959a.419.419 0 0 1-.34.222.512.512 0 0 1-.345-.222 9.376 9.376 0 0 0-5.584-2.959 6.55 6.55 0 0 1-3.262-2.05.36.36 0 0 1-.073-.193l-.377-9.486a.335.335 0 0 1 .212-.315.317.317 0 0 1 .36.095 6.14 6.14 0 0 0 1.055.9l-.163-1.614a.263.263 0 0 1 .163-.278.283.283 0 0 1 .323.066 6.53 6.53 0 0 0 1.019.9l-.174-1.338a.221.221 0 0 1 .108-.23.246.246 0 0 1 .263.018 12.657 12.657 0 0 0 2.074 1.27 9.774 9.774 0 0 1 4.389 4.82 9.654 9.654 0 0 1 4.367-4.82 12.844 12.844 0 0 0 2.081-1.27.231.231 0 0 1 .368.212l-.179 1.338a6.509 6.509 0 0 0 1.025-.9.285.285 0 0 1 .325-.066.268.268 0 0 1 .162.278l-.16 1.615a6.176 6.176 0 0 0 1.052-.9.323.323 0 0 1 .363-.095.326.326 0 0 1 .2.315zm-15.629-15.179c.926 0 1.162-.39 1.162-1.1h1.286c0 1.574-.738 2.23-2.443 2.23s-2.384-.656-2.384-2.133v-2.91c0-1.515.658-2.136 2.384-2.136s2.443.634 2.443 2.221h-1.281c0-.7-.164-1.088-1.162-1.088-.929 0-1.1.392-1.1 1.069v2.774c-.007.682.167 1.073 1.096 1.073zm5.774-3.03 1.878-3.01h1.5l-2.336 3.576 2.545 3.58h-1.559l-2.014-2.874h-.364v2.874H416.5v-6.01h-.485v-1.145h1.769v3.01zm2 8.3a1.415 1.415 0 1 1-1.41-1.412 1.413 1.413 0 0 1 1.41 1.406zm5.073-5.231a1.006 1.006 0 0 0 1.118-1.111v-4.963h1.283v5.031c0 1.477-.9 2.181-2.406 2.181s-2.341-.7-2.341-2.181v-3.885h-.486v-1.145h1.765v4.963c.004.672.304 1.105 1.068 1.105zm5.75 1.067h-.885v-6.573a2.033 2.033 0 0 0-.91-1.556l-9.534-5.358a2.108 2.108 0 0 0-1.833 0l-9.534 5.358a2.036 2.036 0 0 0-.912 1.556v6.573h-.881v-6.573a2.912 2.912 0 0 1 1.36-2.332l9.528-5.354a3.041 3.041 0 0 1 2.71 0l9.531 5.354a2.924 2.924 0 0 1 1.359 2.332z" transform="translate(-404.711 -492.122)"/>
    </g>
</svg>
