<svg xmlns="http://www.w3.org/2000/svg" width="24" height="24" viewBox="0 0 24 24">
    <path data-name="패스 5" d="M68.475 269.413V262.2a.879.879 0 0 0-.879-.879H55.175a.879.879 0 0 0-.88.879v7.214a.879.879 0 0 0 .88.879h4.908v.749h-5.524a.264.264 0 0 0-.264.263v.844a.264.264 0 0 0 .264.263h13.652a.264.264 0 0 0 .264-.263v-.849a.264.264 0 0 0-.264-.263h-5.522v-.734a.124.124 0 0 0 0-.015H67.6a.879.879 0 0 0 .875-.875zm-1.652-.737H55.947v-5.818h10.876z" transform="translate(-48.997 -253.954)" style="fill:#83a8b0"/>
</svg>
