<svg xmlns="http://www.w3.org/2000/svg" width="20" height="20" viewBox="0 0 20 20">
    <g data-name="그룹 2356">
        <path data-name="패스 20" d="m190.957 279.741-5.73-5a.271.271 0 0 0-.355 0l-5.73 5a.271.271 0 0 0-.093.2v8.145a.27.27 0 0 0 .27.27h4.174a.27.27 0 0 0 .27-.27v-3.962a1.285 1.285 0 0 1 2.57 0v3.962a.27.27 0 0 0 .27.27h4.175a.27.27 0 0 0 .27-.27v-8.145a.271.271 0 0 0-.091-.2z" transform="translate(-175.05 -271.677)" style="fill:#545658"/>
        <path data-name="사각형 1797" style="fill:none" d="M0 0h20v20H0z"/>
    </g>
</svg>
