<svg xmlns="http://www.w3.org/2000/svg" width="82.272" height="104.186" viewBox="0 0 82.272 104.186">
    <g data-name="그룹 2881">
        <g data-name="그룹 2876">
            <path data-name="패스 121" d="M955.243 179.895a6.132 6.132 0 1 0-8.641 5.592v6.3a2.508 2.508 0 1 0 5.016 0v-6.3a6.127 6.127 0 0 0 3.625-5.592z" transform="translate(-910.433 -114.291)" style="fill:#23a3b9"/>
            <path data-name="패스 123" d="M989.28 173.844h-1.054V162.19a28.5 28.5 0 1 0-57 0v11.653h-1.054a9.136 9.136 0 0 0-9.124 9.126v40.923a9.135 9.135 0 0 0 9.124 9.124h59.108a9.135 9.135 0 0 0 9.124-9.124v-40.923a9.136 9.136 0 0 0-9.124-9.125zm-51.437-11.654a21.883 21.883 0 0 1 43.766 0v11.653h-43.766zm53.945 61.7a2.51 2.51 0 0 1-2.508 2.507h-59.107a2.51 2.51 0 0 1-2.508-2.507v-40.921a2.511 2.511 0 0 1 2.508-2.508h59.107a2.511 2.511 0 0 1 2.508 2.508z" transform="translate(-916.132 -128.83)" style="fill:#e8e8e8"/>
            <path data-name="패스 122" d="M989.28 173.844h-1.054V162.19a28.5 28.5 0 1 0-57 0v11.653h-1.054a9.136 9.136 0 0 0-9.124 9.126v40.923a9.135 9.135 0 0 0 9.124 9.124h59.108a9.135 9.135 0 0 0 9.124-9.124v-40.923a9.136 9.136 0 0 0-9.124-9.125zm-51.437-11.654a21.883 21.883 0 0 1 43.766 0v11.653h-43.766zm53.945 61.7a2.51 2.51 0 0 1-2.508 2.507h-59.107a2.51 2.51 0 0 1-2.508-2.507v-40.921a2.511 2.511 0 0 1 2.508-2.508h59.107a2.511 2.511 0 0 1 2.508 2.508z" transform="translate(-921.049 -133.691)" style="fill:#515151"/>
        </g>
    </g>
</svg>
