<?xml version="1.0" encoding="utf-8"?>
<!-- Generator: Adobe Illustrator 25.4.0, SVG Export Plug-In . SVG Version: 6.00 Build 0)  -->
<svg version="1.1" id="레이어_1" xmlns="http://www.w3.org/2000/svg" xmlns:xlink="http://www.w3.org/1999/xlink" x="0px"
	 y="0px" viewBox="0 0 19 19" style="enable-background:new 0 0 19 19;" xml:space="preserve">
<style type="text/css">
	.st0{enable-background:new    ;}
	.st1{fill:#111111;}
</style>
<g id="마스크_그룹_3" transform="translate(-591 -1047)">
	<g class="st0">
		<path class="st1" d="M600.6,1065.2c-4.7,0-8.5-3.8-8.5-8.6c0-4.7,3.8-8.5,8.5-8.5c4.7,0,8.6,3.8,8.6,8.5
			C609.2,1061.4,605.3,1065.2,600.6,1065.2z M600.6,1049.6c-3.8,0-7,3.2-7,7c0,3.9,3.1,7,7,7c3.8,0,7-3.2,7-7
			C607.6,1052.8,604.5,1049.6,600.6,1049.6z M600.6,1053.3c-0.7,0-1.1-0.5-1.1-1.1c0-0.6,0.5-1.1,1.1-1.1s1.1,0.5,1.1,1.1
			C601.7,1052.8,601.3,1053.3,600.6,1053.3L600.6,1053.3z M599.6,1061.9v-7.5h2v7.5H599.6z"/>
	</g>
</g>
</svg>
