<svg xmlns="http://www.w3.org/2000/svg" viewBox="0 0 79.37 81.14"><defs><style>.cls-1{fill:#006179;}</style></defs><g id="레이어_2" data-name="레이어 2"><g id="레이어_1-2" data-name="레이어 1"><path class="cls-1" d="M47.9,43.2l.22-1.6a18.19,18.19,0,0,1-2.3,1.34,11,11,0,0,0-4.07,3.55A10.53,10.53,0,0,1,46.11,44,7.89,7.89,0,0,0,47.9,43.2Z"/><path class="cls-1" d="M41.93,47.37a13.18,13.18,0,0,1,5.15-2,7.58,7.58,0,0,0,2.51-.85l.18-1.71a9.28,9.28,0,0,1-3.46,1.93A10.15,10.15,0,0,0,41.93,47.37Z"/><path class="cls-1" d="M32.17,46.19a8.92,8.92,0,0,1-4.45-2.06l.44,11.47A7.87,7.87,0,0,0,31.94,58a15.1,15.1,0,0,1,7.32,3.5V49.86A14.51,14.51,0,0,0,32.17,46.19Zm5,5.51c-.19.11-.32,0-.6-.09a2.53,2.53,0,0,0-.72-.23,5.81,5.81,0,0,0-.78-.07c-.38,0-.58.07-.64.14s0,0,0,.08l.58,4.41a.22.22,0,0,1-.06.19c-.07.08-.13.15-1.18.15s-1.17-.08-1.23-.15a.23.23,0,0,1-.06-.19L33,51.61a.15.15,0,0,0,0-.13,1.06,1.06,0,0,0-.82,0,7.4,7.4,0,0,1-1.51.44.34.34,0,0,1-.18,0c-.24-.17.07-1.29.27-1.94.08-.23.15-.45.36-.45l.13,0a11.84,11.84,0,0,0,2.61.36h.09a10.56,10.56,0,0,0,2.1-.31,3.43,3.43,0,0,1,.53-.11.27.27,0,0,1,.22.1l0,.08C37.41,51.56,37.39,51.58,37.22,51.7Z"/><path class="cls-1" d="M48.47,50.56v-.1c0-.29-.08-.43-.5-.43h-.23V51H48C48.36,51,48.47,50.85,48.47,50.56Z"/><path class="cls-1" d="M32.29,45.33a13.23,13.23,0,0,1,5.16,2,10.25,10.25,0,0,0-4.39-2.67,9.28,9.28,0,0,1-3.46-1.93l.18,1.71A7.58,7.58,0,0,0,32.29,45.33Z"/><path class="cls-1" d="M33.26,44a10.74,10.74,0,0,1,4.37,2.49,11.1,11.1,0,0,0-4.08-3.54,18.94,18.94,0,0,1-2.3-1.34l.22,1.6A7.89,7.89,0,0,0,33.26,44Z"/><path class="cls-1" d="M38.69,42.56a1,1,0,1,0,1-1A1,1,0,0,0,38.69,42.56Z"/><path class="cls-1" d="M40.13,49.86V61.45a14.91,14.91,0,0,1,7.3-3.5,8.19,8.19,0,0,0,3.82-2.31l.41-11.51a9,9,0,0,1-4.46,2.06A14.47,14.47,0,0,0,40.13,49.86ZM45,49.53h1.74V50h-1.2v.78h1v.48h-1v.8h1.25v.49H45Zm-2.5,0H43l.27.92.28,1.41.28-1.41.26-.92h.55l-.81,3h-.56Zm2.94,5.69c0,.62-.38.92-1,.92s-1-.3-1-.92V53.1H44v2.09a.41.41,0,0,0,.45.47.43.43,0,0,0,.47-.47V53.1h.54Zm2.82.89h-.54V55l.06-.86-.6,1.22h-.12l-.6-1.22.06.86v1.07H46v-3h.52l.62,1.34.61-1.34h.53ZM49,50.43v.16a.72.72,0,0,1-.52.81l.66,1.15h-.63l-.6-1.07h-.2v1.07H47.2v-3H48C48.69,49.53,49,49.79,49,50.43Z"/><path class="cls-1" d="M56.62,23.49,41.49,15a4.09,4.09,0,0,0-3.61,0l-15.13,8.5A3.93,3.93,0,0,0,21,26.58v28a3.93,3.93,0,0,0,1.8,3.09l15.13,8.5a4.09,4.09,0,0,0,3.61,0l15.13-8.5a3.93,3.93,0,0,0,1.8-3.09v-28A3.93,3.93,0,0,0,56.62,23.49ZM52.11,55.83a.44.44,0,0,1-.11.27,9.11,9.11,0,0,1-4.4,2.7c-5.21,1-7.37,3.86-7.43,4a.58.58,0,0,1-.45.3.69.69,0,0,1-.47-.3c-.08-.11-2.27-2.92-7.48-4a8.76,8.76,0,0,1-4.37-2.75.46.46,0,0,1-.1-.26L26.81,43.1a.44.44,0,0,1,.27-.43.45.45,0,0,1,.49.13A8.25,8.25,0,0,0,29,44l-.22-2.16a.37.37,0,0,1,.22-.38.38.38,0,0,1,.43.09,8.73,8.73,0,0,0,1.38,1.2L30.54,41a.33.33,0,0,1,.16-.31.3.3,0,0,1,.34,0,16.41,16.41,0,0,0,2.78,1.7,13,13,0,0,1,5.87,6.45,13,13,0,0,1,5.86-6.45,17.19,17.19,0,0,0,2.78-1.7.32.32,0,0,1,.35,0,.3.3,0,0,1,.15.31l-.24,1.79A8.92,8.92,0,0,0,50,41.55a.38.38,0,0,1,.43-.09.37.37,0,0,1,.22.38L50.39,44a8.25,8.25,0,0,0,1.41-1.2.43.43,0,0,1,.77.29ZM31.18,35.5c1.25,0,1.56-.52,1.56-1.46h1.72c0,2.09-1,3-3.28,3S28,36.13,28,34.16v-3.9c0-2,.88-2.86,3.19-2.86s3.28.85,3.28,3H32.74c0-.94-.22-1.46-1.56-1.46s-1.48.52-1.48,1.43v3.72C29.7,35,29.94,35.5,31.18,35.5Zm7.74-4.05,2.51-4h2l-3.12,4.79L43.72,37H41.63l-2.7-3.84h-.49V37h-1.7V29h-.65V27.42h2.37v4Zm2.67,11.11a1.9,1.9,0,1,1-1.89-1.9A1.9,1.9,0,0,1,41.59,42.56Zm6.79-7a1.35,1.35,0,0,0,1.51-1.49V27.42H51.6v6.73c0,2-1.2,2.92-3.22,2.92s-3.13-.94-3.13-2.92V29H44.6V27.42H47v6.64C47,35,47.36,35.55,48.38,35.55ZM56.08,37H54.9v-8.8a2.72,2.72,0,0,0-1.22-2.09L40.92,18.91a3,3,0,0,0-2.47,0L25.69,26.09a2.72,2.72,0,0,0-1.22,2.09V37H23.29v-8.8a3.91,3.91,0,0,1,1.82-3.13l12.76-7.17a4.07,4.07,0,0,1,3.63,0l12.76,7.17a3.91,3.91,0,0,1,1.82,3.13Z"/><path class="cls-1" d="M4.45,50.67a1.31,1.31,0,1,1-1.31-1.31A1.31,1.31,0,0,1,4.45,50.67Z"/><circle class="cls-1" cx="75.3" cy="50.67" r="1.3"/><polygon class="cls-1" points="71 61.56 71.57 60.81 68.38 58.4 65.08 62.78 65.76 63.3 68.5 59.68 71 61.56"/><polygon class="cls-1" points="71.54 62.99 69.46 61.42 68.89 62.18 70.97 63.75 70.34 64.58 68.26 63.01 67.69 63.77 69.77 65.34 68.88 66.52 69.57 67.04 73.71 61.55 73.03 61.03 71.54 62.99"/><path class="cls-1" d="M45.36,76,48,75.63l-.12-.85-5.34.73-.1-.7,5.35-.73-.12-.86L42.35,74l-1,.13.12.85.1.7.05.36.07.49,2.68-.36.07.56-2.94.41.12.85,2.2-.3a1.88,1.88,0,1,0,3.27,1,1.86,1.86,0,0,0-.85-1.32l2.2-.31-.12-.85-2.94.4Zm0,3.91A.94.94,0,0,1,44.35,79a.94.94,0,1,1,1.85-.26A1,1,0,0,1,45.41,79.91Z"/><polygon class="cls-1" points="32.88 78.16 31.93 78.06 31.66 80.46 37.54 81.14 37.64 80.28 32.7 79.72 32.88 78.16"/><polygon class="cls-1" points="38.39 73.8 37.45 73.69 37.02 77.41 35.99 77.29 36.37 74.01 32.17 73.53 32.07 74.38 35.32 74.75 35.04 77.19 33.89 77.05 34.08 75.41 33.14 75.3 32.95 76.94 31.38 76.76 31.28 77.62 36.92 78.27 36.77 79.57 37.71 79.67 38.07 76.56 39.24 76.69 39.34 75.83 38.17 75.7 38.39 73.8"/><polygon class="cls-1" points="17.94 69.5 20.05 71.07 20.49 70.47 16.26 67.35 16.46 67.08 20.54 70.11 20.94 69.57 16.85 66.55 17.04 66.29 21.27 69.42 21.71 68.82 16.72 65.13 16.61 65.29 15.18 67.21 15.06 67.38 17.18 68.94 17 69.17 14.62 67.41 14.18 68.01 19.71 72.1 20.15 71.5 17.77 69.74 17.94 69.5"/><polygon class="cls-1" points="13.65 69.28 13.4 69.62 12.84 70.38 12.59 70.72 17.58 74.41 18.02 73.82 13.79 70.69 13.98 70.44 18.21 73.56 18.41 73.3 18.97 72.53 19.26 72.14 14.26 68.45 13.82 69.05 18.05 72.18 17.89 72.4 13.65 69.28"/><polygon class="cls-1" points="12.55 64.55 13.28 65.47 13.96 64.93 13.23 64.01 14.71 62.83 14.12 62.09 8.35 66.69 8.94 67.43 12.55 64.55"/><polygon class="cls-1" points="11.45 61.45 6.51 61.13 6.45 62.01 12.15 62.33 12.83 61.8 10.04 58.3 9.37 58.84 11.45 61.45"/><polygon class="cls-1" points="55.96 72.22 55.47 72.42 54.58 70.34 53.7 70.71 55.66 75.27 52.68 76.55 51.23 73.17 53.25 72.3 52.91 71.51 50.02 72.75 50.11 72.98 50.36 73.54 51.81 76.92 51.9 77.15 52.15 77.72 56 76.07 56.61 77.49 57.48 77.11 55.81 73.22 56.3 73.01 57.97 76.9 58.84 76.53 55.94 69.75 55.06 70.13 55.96 72.22"/><polygon class="cls-1" points="26.91 74.94 23.49 73.58 23.71 73.02 27.14 74.38 27.36 73.81 27.45 73.58 28 72.2 23.69 70.49 23.38 71.29 26.8 72.65 26.57 73.23 23.15 71.86 22.92 72.43 22.83 72.67 22.29 74.03 26.59 75.75 26.91 74.94"/><polygon class="cls-1" points="27.27 79.41 27.52 78.78 28.19 77.11 30.01 72.53 29.13 72.18 27.3 76.75 22.68 74.92 22.36 75.72 26.99 77.56 26.39 79.06 27.27 79.41"/><polygon class="cls-1" points="62.86 64.65 62.11 65.24 65.14 69.11 61.22 72.18 61.75 72.86 65.67 69.79 66.66 71.07 67.41 70.48 65.89 68.53 65.89 68.53 64.56 66.84 65.49 66.11 64.96 65.44 64.03 66.16 62.86 64.65"/><path class="cls-1" d="M62,70.92a1.71,1.71,0,0,0,.3-2.39,1.75,1.75,0,0,0-1.1-.63l.88-.68-.53-.68-1.48,1.14L59.53,67l-.74.59.53.68-1.47,1.15.53.68.88-.69a1.72,1.72,0,0,0,.35,1.22A1.69,1.69,0,0,0,62,70.92Zm-.53-.69a.79.79,0,0,1-1.1-.19.78.78,0,0,1,.08-1.11.83.83,0,0,1,1,1.3Z"/><path class="cls-1" d="M73.8,19.41l1.1,2-.52.28-.75-1.38-1.11.6.67,1.22-.52.29L72,21.22l-1.21.66.77,1.41-.53.29-1.12-2Z"/><path class="cls-1" d="M79.37,38.64l0,.79-1.88.72,1.81.9,0,.69-2.5-1.32-1.87-.08,0-.72,1.87.08Z"/><path class="cls-1" d="M77.4,30.68l.64-.09a3.05,3.05,0,0,0,0-1,1.5,1.5,0,0,0-.14-.47,1.06,1.06,0,0,0-.27-.35,1.16,1.16,0,0,0-.4-.2,1.37,1.37,0,0,0-.5,0,1.33,1.33,0,0,0-.45.14,1.1,1.1,0,0,0-.31.25,1.77,1.77,0,0,0-.21.32,3.68,3.68,0,0,0-.15.35l-.12.35a1.57,1.57,0,0,1-.15.32.9.9,0,0,1-.2.23.77.77,0,0,1-.31.12.84.84,0,0,1-.32,0,.53.53,0,0,1-.25-.12A.72.72,0,0,1,74,30a1.72,1.72,0,0,1,.21-1.15l-.67.09a3.09,3.09,0,0,0,0,1.21,1.75,1.75,0,0,0,.16.52,1.1,1.1,0,0,0,.31.39,1.18,1.18,0,0,0,.44.24,1.53,1.53,0,0,0,.57,0,1.34,1.34,0,0,0,.44-.13,1.17,1.17,0,0,0,.51-.57,2.63,2.63,0,0,0,.15-.35c0-.12.09-.23.13-.35a2.37,2.37,0,0,1,.14-.32.93.93,0,0,1,.21-.23.77.77,0,0,1,.31-.12.65.65,0,0,1,.24,0,.67.67,0,0,1,.21.09.6.6,0,0,1,.16.19.84.84,0,0,1,.07.19A1.4,1.4,0,0,1,77.4,30.68Z"/><path class="cls-1" d="M73.85,27.06l.24-.23.18-.22.11-.22a.78.78,0,0,0,0-.22,1.61,1.61,0,0,0,.29.24,1.22,1.22,0,0,0,.33.14,1.05,1.05,0,0,0,.36,0,1.67,1.67,0,0,0,.78-.33,1.1,1.1,0,0,0,.26-.31,1,1,0,0,0,.11-.38,1.17,1.17,0,0,0,0-.45,1.8,1.8,0,0,0,0-.19c0-.06,0-.15-.09-.24l-.06-.15-.42-1-.23.09-3.86,1.6.27.65,1.73-.71.09.23a.77.77,0,0,1,.07.32.89.89,0,0,1-.07.28,1.2,1.2,0,0,1-.19.27,3.18,3.18,0,0,1-.26.26l-.79.75.28.68ZM74.27,25l1.44-.6.11.28a1.63,1.63,0,0,1,.09.26.58.58,0,0,1,0,.18.58.58,0,0,1-.11.44.86.86,0,0,1-.38.28,1.16,1.16,0,0,1-.31.07.74.74,0,0,1-.29-.05.83.83,0,0,1-.25-.18,1.7,1.7,0,0,1-.2-.33Z"/><path class="cls-1" d="M41.33,1.29A1.9,1.9,0,0,0,41,.58a1.52,1.52,0,0,0-.54-.44A1.66,1.66,0,0,0,39.67,0H38.39l.06,4.42h1.39a1.52,1.52,0,0,0,.69-.15,1.38,1.38,0,0,0,.52-.42,1.87,1.87,0,0,0,.32-.68,3.29,3.29,0,0,0,.1-.92A3.13,3.13,0,0,0,41.33,1.29ZM40.68,3a1.6,1.6,0,0,1-.22.53,1,1,0,0,1-.36.32.88.88,0,0,1-.4.11h-.54l0-3.41h.55a.8.8,0,0,1,.38.1,1,1,0,0,1,.37.34,1.69,1.69,0,0,1,.24.54,2.7,2.7,0,0,1,.09.73A2.7,2.7,0,0,1,40.68,3Z"/><polygon class="cls-1" points="26.29 2.32 26.73 5.95 24.56 3.05 24.48 3.09 23.89 3.34 23.88 3.34 24.33 6.97 22.16 4.07 21.49 4.36 24.3 7.97 25.04 7.65 24.62 4.29 26.7 6.95 27.44 6.63 26.88 2.07 26.29 2.32"/><path class="cls-1" d="M1.83,27.83l.24-.68,1.73.61.49-1.4-1.73-.61.24-.69L7,26.54l-.24.68-1.86-.66L4.38,28l1.86.65L6,29.3Z"/><path class="cls-1" d="M7.11,21.12a3,3,0,0,1,1.35,1.11,1.29,1.29,0,0,1,0,1.29,1.33,1.33,0,0,1-1,.8,2.82,2.82,0,0,1-1.7-.39,2.86,2.86,0,0,1-1.34-1.11,1.31,1.31,0,0,1,0-1.3,1.32,1.32,0,0,1,1-.79A3,3,0,0,1,7.11,21.12Zm-.31.64a3.72,3.72,0,0,0-1.24-.4.69.69,0,0,0-.72.39.67.67,0,0,0,.13.8,3.66,3.66,0,0,0,1.08.74,3.55,3.55,0,0,0,1.23.4A.68.68,0,0,0,8,23.3a.68.68,0,0,0-.13-.79A3.58,3.58,0,0,0,6.8,21.76Z"/><path class="cls-1" d="M.7,32.31l.6-2.6.61.14-.22.95,3.7.85-.16.7-3.7-.85-.22,1Z"/><path class="cls-1" d="M79,34.62l.24,2.66-.62,0-.08-1-3.79.35L74.72,36l3.79-.35-.09-1Z"/><path class="cls-1" d="M33.06.6,33.9.48,36,3.41,35.52.25l.6-.09.6,4.39-.66.09L33.78,1.39l.48,3.51-.6.08Z"/><path class="cls-1" d="M65.4,9.48l.63.57-.94,3.46,2.15-2.36.45.41-3,3.26-.49-.45,1.06-3.83-2.4,2.61-.45-.41Z"/><path class="cls-1" d="M69.17,13.15l.48.54-3.33,2.92-.47-.54Z"/><path class="cls-1" d="M78.67,32.39l.12.71-4.37.71-.11-.72Z"/><path class="cls-1" d="M9.15,14.37l.46-.56L13,16.66l-.47.56Z"/><path class="cls-1" d="M46.34,2.76a3.06,3.06,0,0,1-.63,1.63,1.37,1.37,0,0,1-1.25.41,1.3,1.3,0,0,1-1.06-.73,2.93,2.93,0,0,1-.17-1.74A2.9,2.9,0,0,1,43.86.71,1.35,1.35,0,0,1,45.1.3,1.32,1.32,0,0,1,46.17,1,3,3,0,0,1,46.34,2.76Zm-.71-.09a3.49,3.49,0,0,0,0-1.31A.66.66,0,0,0,45,.81a.66.66,0,0,0-.72.37,3.45,3.45,0,0,0-.36,1.25,3.74,3.74,0,0,0,0,1.3.66.66,0,0,0,.59.56.68.68,0,0,0,.73-.36A3.57,3.57,0,0,0,45.63,2.67Z"/><path class="cls-1" d="M62.47,9.94h0l1.26-1.81-.6-.42L61.7,9.77a3.09,3.09,0,0,1-.71.7.69.69,0,0,1-.81,0,.66.66,0,0,1-.27-.77,3.48,3.48,0,0,1,.41-.9l1.46-2.06-.59-.42L59.91,8.13h0a2.83,2.83,0,0,0-.63,1.61,1.3,1.3,0,0,0,.62,1.13,1.33,1.33,0,0,0,1.29.21A2.93,2.93,0,0,0,62.43,10h0Z"/><path class="cls-1" d="M48.55,1l.82.22.74,3.51L51,1.63l.58.16L50.36,6.06l-.65-.18L48.9,2,48,5.41l-.58-.16Z"/><path class="cls-1" d="M.28,35.54l.09-.81L4.89,34l-.08.73-1.13.15-.14,1.27,1.07.44-.06.64ZM3.09,35l-1.86.25L3,36Z"/><path class="cls-1" d="M29.29,1.4l.79-.2,2.24,4-.71.19-.54-1-1.24.32,0,1.16L29.18,6Zm1.5,2.44L29.9,2.19l-.06,1.89Z"/><path class="cls-1" d="M72.31,17.14l.38.52-4.31,1.6-.48-.65L70.77,15l.43.59-2.31,2.78Z"/><path class="cls-1" d="M6.47,18l.41-.59L10,19.58l.87-1.27.51.35-1.29,1.87Z"/><path class="cls-1" d="M4.27,38.82H3.59a1.13,1.13,0,0,1,.42.9.92.92,0,0,1-.1.41.87.87,0,0,1-.32.37,1.73,1.73,0,0,1-.53.24,3.35,3.35,0,0,1-.75.09,2.52,2.52,0,0,1-.75-.07A1.83,1.83,0,0,1,1,40.55a1,1,0,0,1-.35-.35.89.89,0,0,1-.12-.39,1.1,1.1,0,0,1,.4-.92H.22a1.51,1.51,0,0,0-.11.22,2,2,0,0,0-.08.29,1.82,1.82,0,0,0,.14,1.18,1.58,1.58,0,0,0,.47.53,2.2,2.2,0,0,0,.74.34,3.74,3.74,0,0,0,1,.1,3.76,3.76,0,0,0,1-.13A2.24,2.24,0,0,0,4,41.08a1.41,1.41,0,0,0,.41-.53,1.52,1.52,0,0,0,.13-.69,2.4,2.4,0,0,0-.06-.55A2.32,2.32,0,0,0,4.27,38.82Z"/><path class="cls-1" d="M16.06,13.32l-.47-.49a1.15,1.15,0,0,1-.38.92,1.07,1.07,0,0,1-.36.2,1,1,0,0,1-.49,0,1.47,1.47,0,0,1-.54-.23,2.76,2.76,0,0,1-.57-.49,2.67,2.67,0,0,1-.46-.6,1.85,1.85,0,0,1-.22-.57,1,1,0,0,1,0-.5,1,1,0,0,1,.2-.35,1.13,1.13,0,0,1,1-.33l-.49-.51-.22.07-.28.14a1.9,1.9,0,0,0-.77.9,1.53,1.53,0,0,0-.08.71,2.3,2.3,0,0,0,.25.77,3.68,3.68,0,0,0,.59.79,3.32,3.32,0,0,0,.74.61,1.83,1.83,0,0,0,.72.27,1.38,1.38,0,0,0,.67-.05,1.5,1.5,0,0,0,.59-.37,2,2,0,0,0,.37-.42A2,2,0,0,0,16.06,13.32Z"/><polygon class="cls-1" points="20.11 5.15 19.37 5.61 19.25 8.17 18.14 6.38 17.53 6.76 19.86 10.52 20.47 10.14 19.36 8.34 21.71 9.36 22.45 8.9 19.98 7.84 20.11 5.15"/><path class="cls-1" d="M53.62,7.38a1.59,1.59,0,0,1-1-1,2.67,2.67,0,0,1,.2-1.69c.55-1.28,1.57-1.83,2.61-1.4a1.82,1.82,0,0,1,.74.54l0,0-.47.59,0-.1c0-.18-.21-.34-.52-.47-.71-.3-1.39.09-1.78,1s-.2,1.7.46,2a1.32,1.32,0,0,0,.45.11l.43-1-.58-.24.27-.61,1.13.47-.9,2.09h0l-.11,0A3.14,3.14,0,0,1,53.62,7.38Z"/></g></g></svg>