<svg xmlns="http://www.w3.org/2000/svg" width="220" height="38.312" viewBox="0 0 220 38.312">
    <defs>
        <style>
            .cls-1{fill:#464749}.cls-2{fill:#005164}
        </style>
    </defs>
    <g id="logo" transform="translate(-404.711 -492.122)">
        <g id="그룹_2360" data-name="그룹 2360" transform="translate(440.012 500.169)">
            <g id="그룹_2359" data-name="그룹 2359">
                <path id="패스_21" data-name="패스 21" class="cls-1" d="M567.382 510.784h2.7V499.4h-15.625v2.454h12.925z" transform="translate(-387.37 -497.609)"/>
                <path id="패스_22" data-name="패스 22" class="cls-1" d="M565.581 512.475v-7.426h-2.7v7.426h-2.967v-7.426h-2.7v7.426H553v2.454h19.584v-2.454z" transform="translate(-387.883 -495.625)"/>
                <path id="패스_23" data-name="패스 23" class="cls-1" d="M512.665 506.31h7.656v-2.454h-15.354v-2h15.355V499.4h-18.057v6.906h7.7v1.63h-8.44v2.464h6.306a5.362 5.362 0 1 0 6.971 0h6.308v-2.46h-8.442zm-1.353 11.062a2.7 2.7 0 0 1-2.664-2.906 2.675 2.675 0 1 1 5.33 0 2.7 2.7 0 0 1-2.665 2.907z" transform="translate(-405.979 -497.609)"/>
                <path id="패스_24" data-name="패스 24" class="cls-1" d="M487.273 508.943h-2.708v6.893h16.86v-2.456h-14.152z" transform="translate(-411.94 -494.256)"/>
                <path id="패스_25" data-name="패스 25" class="cls-1" d="M501.946 498.484h-2.7v10.655h-2.954v-9.413h-12.02v2.456h9.319v6.957h-3.3v-4.711h-2.7v4.711H483.1v2.454h16.15v3.716h2.7v-8.926h3.337v-2.456h-3.337z" transform="translate(-412.456 -497.933)"/>
                <path id="패스_26" data-name="패스 26" class="cls-1" d="M460.055 507.344h7.485v-2.1h-14.969v-.929h14.461v-1.891h-14.461v-.914h14.969v-2.1h-17.669v7.942h7.482v.831h-8.442v2.1H468.5v-2.1h-8.444z" transform="translate(-424.474 -497.61)"/>
                <path id="패스_27" data-name="패스 27" class="cls-1" d="M449.621 511.014v5.114h17.669v-2.1h-14.968v-.909h14.968V508.1h-17.669v2.1h14.965v.811z" transform="translate(-424.224 -494.552)"/>
                <path id="패스_28" data-name="패스 28" class="cls-1" d="M445.117 506.367h3.337v-2.456h-3.337v-5.4h-2.7V519.5h2.7z" transform="translate(-426.758 -497.922)"/>
                <path id="패스_29" data-name="패스 29" class="cls-1" d="m440.333 502.71-9.481 10.417 1.843 1.7 10.853-12.117v-2.45H430.83v2.448z" transform="translate(-430.83 -497.308)"/>
                <path id="패스_30" data-name="패스 30" class="cls-1" d="M535.035 504.974h-1.5v-6.46h-2.7v14.128H521.6v-10.471h6.253v-2.454h-8.957V515.1h11.934v4.4h2.7v-12.068h1.5V519.5h2.7v-20.986h-2.7z" transform="translate(-399.872 -497.922)"/>
                <path id="패스_31" data-name="패스 31" class="cls-1" d="M479.478 507.8h-10.5v-1.722h10.5V499.4h-13.2v2.456h10.5v1.762h-10.5v6.63h13.2z" transform="translate(-418.368 -497.61)"/>
                <path id="패스_32" data-name="패스 32" class="cls-1" d="M484.607 519.565v-21.081h-2.7V512.5h-14.158v2.456H481.9v4.614z" transform="translate(-417.851 -497.933)"/>
                <path id="패스_33" data-name="패스 33" class="cls-1" d="M554.177 498.484h-2.7V512.5h-14.156v2.456h14.154v4.591h2.7v-13.16h3.339v-2.456h-3.339z" transform="translate(-393.394 -497.933)"/>
                <path id="패스_34" data-name="패스 34" class="cls-1" d="M541.964 511.17a4.829 4.829 0 0 0 3.488-8.178h3.171v-2.454h-5.309v-2.461h-2.7v2.461H535.3v2.454h3.173a4.83 4.83 0 0 0 3.49 8.178zm0-2.481a2.365 2.365 0 1 1 2.133-2.357 2.257 2.257 0 0 1-2.133 2.356z" transform="translate(-394.104 -498.076)"/>
            </g>
        </g>
        <g id="그룹_2361" data-name="그룹 2361" transform="translate(404.711 492.122)">
            <path id="패스_35" data-name="패스 35" class="cls-2" d="M419.851 511.843v-.072c0-.215-.058-.322-.365-.322h-.172v.707h.165c.289.001.372-.102.372-.313z" transform="translate(-399.577 -485.327)"/>
            <path id="패스_36" data-name="패스 36" class="cls-2" d="m420.583 508.038.153-1.184a12.344 12.344 0 0 1-1.688.988 8.1 8.1 0 0 0-3 2.617 7.8 7.8 0 0 1 3.218-1.841 5.654 5.654 0 0 0 1.317-.58z" transform="translate(-400.725 -486.942)"/>
            <path id="패스_37" data-name="패스 37" class="cls-2" d="M416.148 510.882a9.706 9.706 0 0 1 3.794-1.5 5.641 5.641 0 0 0 1.85-.628l.127-1.258a6.744 6.744 0 0 1-2.545 1.422 7.419 7.419 0 0 0-3.226 1.964z" transform="translate(-400.69 -486.717)"/>
            <path id="패스_38" data-name="패스 38" class="cls-2" d="M411.679 509.757a6.726 6.726 0 0 1-3.279-1.519l.33 8.451a5.814 5.814 0 0 0 2.78 1.723 11.149 11.149 0 0 1 5.4 2.583v-8.542a10.7 10.7 0 0 0-5.231-2.696zm3.725 4.052c-.141.081-.234.026-.441-.063a1.785 1.785 0 0 0-.539-.166 3.389 3.389 0 0 0-.572-.057.738.738 0 0 0-.468.1.059.059 0 0 0-.011.062l.426 3.248a.2.2 0 0 1-.038.143c-.054.055-.1.105-.87.105-.814 0-.864-.053-.908-.114a.171.171 0 0 1-.043-.136l.35-3.187c.007-.057-.008-.081-.019-.089-.074-.085-.32-.1-.607-.043a5.823 5.823 0 0 1-1.11.326.275.275 0 0 1-.13-.032c-.181-.124.05-.953.2-1.431.057-.169.105-.332.261-.332a1.007 1.007 0 0 0 .1.019 8.455 8.455 0 0 0 1.926.261h.054a7.306 7.306 0 0 0 1.56-.228 2.243 2.243 0 0 1 .385-.072.205.205 0 0 1 .166.072.187.187 0 0 1 .028.057c.439 1.46.42 1.472.296 1.557z" transform="translate(-403.414 -486.456)"/>
            <path id="패스_39" data-name="패스 39" class="cls-2" d="M411.409 509.382a9.829 9.829 0 0 1 3.8 1.5 7.5 7.5 0 0 0-3.238-1.962 6.8 6.8 0 0 1-2.544-1.422l.127 1.258a5.646 5.646 0 0 0 1.855.626z" transform="translate(-403.052 -486.717)"/>
            <path id="패스_40" data-name="패스 40" class="cls-2" d="M411.806 508.618a7.964 7.964 0 0 1 3.219 1.837 8.157 8.157 0 0 0-3.01-2.613 14.1 14.1 0 0 1-1.689-.988l.164 1.184a5.533 5.533 0 0 0 1.316.58z" transform="translate(-402.737 -486.942)"/>
            <path id="패스_41" data-name="패스 41" class="cls-2" d="M414.383 507.568a.74.74 0 1 0 .745-.741.742.742 0 0 0-.745.741z" transform="translate(-401.311 -486.952)"/>
            <path id="패스_42" data-name="패스 42" class="cls-2" d="M415.168 512.455v8.538a11.056 11.056 0 0 1 5.372-2.579 5.979 5.979 0 0 0 2.819-1.7l.3-8.478a6.648 6.648 0 0 1-3.279 1.526 10.6 10.6 0 0 0-5.212 2.693zm3.579-.245h1.281v.349h-.883v.57h.756v.36h-.756v.584h.924v.369h-1.323zm-1.841 0h.411l.187.68.212 1.043.2-1.049.189-.674h.41l-.593 2.227h-.422zm2.169 4.187c0 .464-.28.682-.75.682s-.723-.219-.723-.682v-1.558h.4v1.542c0 .209.091.346.326.346a.312.312 0 0 0 .349-.346v-1.542h.4zm2.071.658h-.395v-.781l.036-.636-.438.892h-.089l-.442-.892.047.636v.781h-.395v-2.222h.381l.456.987.454-.987h.384zm.578-4.182v.112a.537.537 0 0 1-.381.6l.485.849h-.462l-.443-.781h-.149v.781h-.4v-2.229h.558c.541.006.792.207.792.673z" transform="translate(-401.035 -486.458)"/>
            <path id="패스_43" data-name="패스 43" class="cls-2" d="m430.988 498.7-11.143-6.266a3 3 0 0 0-2.659 0l-11.148 6.266a2.888 2.888 0 0 0-1.327 2.267v20.625a2.878 2.878 0 0 0 1.327 2.268l11.148 6.267a3 3 0 0 0 2.659 0l11.143-6.267a2.88 2.88 0 0 0 1.333-2.268v-20.628a2.89 2.89 0 0 0-1.333-2.264zm-3.319 23.821a.33.33 0 0 1-.081.2 6.64 6.64 0 0 1-3.241 1.988 9.077 9.077 0 0 0-5.477 2.919.413.413 0 0 1-.335.219.5.5 0 0 1-.341-.219 9.25 9.25 0 0 0-5.509-2.919 6.462 6.462 0 0 1-3.218-2.022.355.355 0 0 1-.072-.191l-.372-9.358a.331.331 0 0 1 .209-.311.313.313 0 0 1 .355.093 6.057 6.057 0 0 0 1.041.884l-.161-1.592a.26.26 0 0 1 .161-.274.279.279 0 0 1 .319.065 6.444 6.444 0 0 0 1.006.885l-.172-1.32a.218.218 0 0 1 .107-.227.243.243 0 0 1 .26.018 12.484 12.484 0 0 0 2.046 1.253 9.643 9.643 0 0 1 4.33 4.755 9.524 9.524 0 0 1 4.309-4.755 12.671 12.671 0 0 0 2.053-1.253.228.228 0 0 1 .364.209l-.177 1.32a6.421 6.421 0 0 0 1.011-.885.281.281 0 0 1 .32-.065.264.264 0 0 1 .159.274l-.163 1.588a6.093 6.093 0 0 0 1.038-.884.318.318 0 0 1 .358-.093.322.322 0 0 1 .2.311zm-15.419-14.978c.914 0 1.146-.385 1.146-1.084h1.264c0 1.553-.729 2.2-2.41 2.2s-2.352-.647-2.352-2.1v-2.871c0-1.495.649-2.107 2.352-2.107s2.41.626 2.41 2.191h-1.26c0-.687-.162-1.073-1.146-1.073-.916 0-1.088.387-1.088 1.054v2.737c-.004.668.168 1.053 1.084 1.053zm5.7-2.99 1.853-2.969h1.479l-2.3 3.528 2.511 3.532h-1.538l-1.987-2.836h-.36v2.836h-1.256v-5.929h-.478v-1.13h1.745v2.969zm1.972 8.184a1.4 1.4 0 1 1-1.391-1.393 1.394 1.394 0 0 1 1.388 1.393zm5-5.16a.992.992 0 0 0 1.1-1.1v-4.9h1.27v4.963c0 1.457-.892 2.152-2.373 2.152s-2.31-.695-2.31-2.152v-3.833h-.48v-1.13h1.741v4.9c.005.673.301 1.1 1.053 1.1zm5.672 1.053h-.873v-6.485a2.006 2.006 0 0 0-.9-1.535l-9.405-5.286a2.08 2.08 0 0 0-1.808 0l-9.405 5.286a2.009 2.009 0 0 0-.9 1.535v6.485h-.869v-6.485a2.873 2.873 0 0 1 1.342-2.3l9.4-5.282a3 3 0 0 1 2.673 0l9.4 5.282a2.885 2.885 0 0 1 1.341 2.3z" transform="translate(-404.711 -492.122)"/>
        </g>
    </g>
</svg>
