<svg xmlns="http://www.w3.org/2000/svg" width="263.463" height="161.569" viewBox="0 0 263.463 161.569">
    <defs>
        <style>
            .cls-1{fill:#464749}.cls-2{fill:#005164}
        </style>
    </defs>
    <g id="logo_00" transform="translate(-142.069 -286.257)">
        <g id="그룹_2364" data-name="그룹 2364" transform="translate(142.069 395.135)">
            <g id="그룹_2360" data-name="그룹 2360">
                <path id="패스_23" data-name="패스 23" class="cls-1" d="M247.922 353.362h3.853v-16.233h-22.282v3.5h18.429z" transform="translate(8.848 -334.568)"/>
                <path id="패스_24" data-name="패스 24" class="cls-1" d="M246.409 351.713v-10.592h-3.855v10.592h-4.233v-10.592h-3.858v10.592h-6v3.5H256.4v-3.5z" transform="translate(7.064 -327.678)"/>
                <path id="패스_25" data-name="패스 25" class="cls-1" d="M207.96 346.982h10.916v-3.5h-21.9v-2.846h21.9v-3.506h-25.76v9.853H204.1v2.328h-12.042v3.5h9a7.649 7.649 0 1 0 9.943 0h9v-3.5H207.96zm-1.93 15.78a3.854 3.854 0 0 1-3.809-4.144 3.816 3.816 0 1 1 7.6 0 3.85 3.85 0 0 1-3.791 4.143z" transform="translate(-55.775 -334.569)"/>
                <path id="패스_26" data-name="패스 26" class="cls-1" d="M183.927 343.874h-3.858v9.832h24.047v-3.5h-20.189z" transform="translate(-76.471 -322.924)"/>
                <path id="패스_27" data-name="패스 27" class="cls-1" d="M205.913 336.479h-3.85v15.2h-4.212v-13.427H180.7v3.5H194v9.929h-4.7v-6.721h-3.86v6.721h-6.4v3.5h23.032v5.3h3.85v-12.736h4.766v-3.5h-4.766z" transform="translate(-78.263 -335.691)"/>
                <path id="패스_28" data-name="패스 28" class="cls-1" d="M170.751 348.456h10.679v-3h-21.352v-1.324h20.628v-2.7h-20.628v-1.3h21.352v-3h-25.207v11.327H166.9v1.187h-12.046v3h27.939v-3h-12.042z" transform="translate(-119.999 -334.568)"/>
                <path id="패스_29" data-name="패스 29" class="cls-1" d="M155.356 347.434v7.3h25.207v-3h-21.351v-1.3h21.352v-7.158h-25.208v3h21.35v1.151z" transform="translate(-119.132 -323.954)"/>
                <path id="패스_30" data-name="패스 30" class="cls-1" d="M154.114 347.7h4.76v-3.5h-4.76v-7.7h-3.852v29.934h3.852z" transform="translate(-127.927 -335.653)"/>
                <path id="패스_31" data-name="패스 31" class="cls-1" d="M155.621 341.229 142.1 356.09l2.63 2.425 15.482-17.282v-3.5h-18.143v3.493z" transform="translate(-142.069 -333.522)"/>
                <path id="패스_32" data-name="패스 32" class="cls-1" d="M227.369 345.718h-2.146V336.5h-3.855v20.152H208.2v-14.933h8.916v-3.5h-12.771v21.937h17.023v6.285h3.855v-17.223h2.146v17.218h3.855V336.5h-3.855z" transform="translate(-34.565 -335.653)"/>
                <path id="패스_33" data-name="패스 33" class="cls-1" d="M185.966 349.1h-14.973v-2.452h14.973v-9.518h-18.828v3.5h14.973v2.52h-14.973v9.45h18.828z" transform="translate(-98.794 -334.568)"/>
                <path id="패스_34" data-name="패스 34" class="cls-1" d="M192.223 366.549v-30.07h-3.855v19.985h-20.191v3.5h20.191v6.581z" transform="translate(-97.001 -335.691)"/>
                <path id="패스_35" data-name="패스 35" class="cls-1" d="M241.416 336.479h-3.853v19.985h-20.188v3.5h20.189v6.552h3.855v-18.771h4.76v-3.5h-4.76z" transform="translate(-12.071 -335.691)"/>
                <path id="패스_36" data-name="패스 36" class="cls-1" d="M225.447 354.87a6.891 6.891 0 0 0 4.978-11.671h4.52v-3.5h-7.571v-3.509h-3.854v3.51h-7.574v3.5h4.52a6.9 6.9 0 0 0 4.981 11.671zm0-3.541a3.375 3.375 0 1 1 3.045-3.361 3.216 3.216 0 0 1-3.045 3.361z" transform="translate(-14.538 -336.19)"/>
            </g>
            <g id="그룹_2363" data-name="그룹 2363" transform="translate(1.098 39.516)">
                <path id="패스_37" data-name="패스 37" class="cls-1" d="M220.2 350.758h6.579v1.674h-4.512v3.612h3.983v1.685h-3.983v3.956h4.6v1.715H220.2z" transform="translate(-8.289 -350.557)"/>
                <path id="패스_38" data-name="패스 38" class="cls-1" d="M235.061 350.758h2.239l2.3 5.267 2.328-5.267h1.979l-3.468 7.3v5.342h-2.061v-5.346z" transform="translate(17.362 -350.557)"/>
                <path id="패스_39" data-name="패스 39" class="cls-1" d="M233.38 352.962v-1.848a8.86 8.86 0 0 0-2.879-.428 4.17 4.17 0 0 0-1.379.224 3.047 3.047 0 0 0-1.1.641 2.821 2.821 0 0 0-.725 1.041 3.568 3.568 0 0 0-.262 1.415 3.256 3.256 0 0 0 .812 2.287 4.325 4.325 0 0 0 .818.714 9.758 9.758 0 0 0 .949.553q.491.25.949.491a4.28 4.28 0 0 1 .829.532 2.343 2.343 0 0 1 .586.665 1.883 1.883 0 0 1 .213.924 2.4 2.4 0 0 1-.153.889 1.79 1.79 0 0 1-.455.66 2.055 2.055 0 0 1-.7.412 2.476 2.476 0 0 1-.706.134 5.027 5.027 0 0 1-3.2-1.031l.005 1.925a9.031 9.031 0 0 0 3.419.562 4.8 4.8 0 0 0 1.54-.245 3.463 3.463 0 0 0 1.23-.731 3.355 3.355 0 0 0 .826-1.178 3.993 3.993 0 0 0 .292-1.584 3.478 3.478 0 0 0-.224-1.309 3.069 3.069 0 0 0-.594-.957 4.213 4.213 0 0 0-.832-.706c-.316-.2-.586-.382-.911-.548s-.646-.33-.954-.493a4.7 4.7 0 0 1-.831-.54 2.168 2.168 0 0 1-.589-.676 1.749 1.749 0 0 1-.226-.905 1.968 1.968 0 0 1 .117-.687 1.5 1.5 0 0 1 .344-.556 1.788 1.788 0 0 1 1.159-.5 3.992 3.992 0 0 1 2.632.853z" transform="translate(3.4 -350.684)"/>
                <path id="패스_40" data-name="패스 40" class="cls-1" d="M230.4 360.033c-.128-.327-.251-.63-.371-.894a5.3 5.3 0 0 0-.393-.706 3.063 3.063 0 0 0-.444-.521 2.216 2.216 0 0 0-.54-.365 4.327 4.327 0 0 0 .954-.5 3.311 3.311 0 0 0 .722-.7 2.926 2.926 0 0 0 .469-.93 4.471 4.471 0 0 0-.016-2.435 3.064 3.064 0 0 0-.537-1 2.982 2.982 0 0 0-.894-.722 4.119 4.119 0 0 0-1.219-.42c-.161-.022-.344-.041-.537-.057s-.453-.025-.755-.025h-3.585V363.4h2.046v-5.333h.692a2.192 2.192 0 0 1 .93.18 2.008 2.008 0 0 1 .673.5 3.061 3.061 0 0 1 .488.761c.142.3.27.622.4.976l1.14 2.914h2.1zm-5.1-3.383v-4.441h.883a5.951 5.951 0 0 1 .758.03 2.822 2.822 0 0 1 .526.1 1.832 1.832 0 0 1 1.047.772 2.551 2.551 0 0 1 .311 1.311 2.765 2.765 0 0 1-.139.883 1.935 1.935 0 0 1-.447.712 2.176 2.176 0 0 1-.761.469 3.258 3.258 0 0 1-1.088.166z" transform="translate(-3.015 -350.557)"/>
                <path id="패스_41" data-name="패스 41" class="cls-1" d="M196.717 354.507a6.208 6.208 0 0 0-1-2.037 4.366 4.366 0 0 0-1.551-1.273 4.677 4.677 0 0 0-2.165-.439l-1.589.006v-.006h-2.064V363.4h2.064v-.005l1.927.005a4.6 4.6 0 0 0 1.963-.4 4.009 4.009 0 0 0 1.494-1.181 5.557 5.557 0 0 0 .949-1.93 9.662 9.662 0 0 0 .335-2.645 9.5 9.5 0 0 0-.363-2.737zm-1.927 4.708a4.485 4.485 0 0 1-.654 1.508 2.848 2.848 0 0 1-1.039.919 3.076 3.076 0 0 1-1.145.3h-1.54V352.2h1.573a2.659 2.659 0 0 1 1.1.316 2.9 2.9 0 0 1 1.033.968 5.025 5.025 0 0 1 .66 1.559 8.286 8.286 0 0 1 .24 2.1 8.519 8.519 0 0 1-.229 2.072z" transform="translate(-63.279 -350.557)"/>
                <path id="패스_42" data-name="패스 42" class="cls-1" d="m189.332 350.758-2.881 10.028-2.468-10.028h-2.1L179 360.786l-2.476-10.028h-2.09l3.352 12.64h2.314l2.668-9.331 2.471 9.331h2.316l3.615-12.64z" transform="translate(-87.294 -350.557)"/>
                <path id="패스_43" data-name="패스 43" class="cls-1" d="M152.44 350.758h2.06V356h4.242v-5.243h2.072V363.4h-2.072v-5.632H154.5v5.632h-2.06z" transform="translate(-125.264 -350.557)"/>
                <path id="패스_44" data-name="패스 44" class="cls-1" d="M165.085 357.238a8.444 8.444 0 0 1-1.145 4.853 3.781 3.781 0 0 1-3.312 1.641 3.857 3.857 0 0 1-3.345-1.636 10.747 10.747 0 0 1-.008-9.692 4.207 4.207 0 0 1 6.666-.014 8.474 8.474 0 0 1 1.144 4.848zm-2.045.008a10.11 10.11 0 0 0-.542-3.689 2 2 0 0 0-3.787.008 10.087 10.087 0 0 0-.54 3.681 10.429 10.429 0 0 0 .529 3.661 1.927 1.927 0 0 0 1.928 1.366 1.9 1.9 0 0 0 1.865-1.325 9.932 9.932 0 0 0 .548-3.702z" transform="translate(-118.905 -350.557)"/>
                <path id="패스_45" data-name="패스 45" class="cls-1" d="M149.03 350.758h7.625v1.775h-2.789V363.4H151.8v-10.867h-2.77z" transform="translate(-131.151 -350.557)"/>
                <path id="패스_46" data-name="패스 46" class="cls-1" d="M232.015 350.758h7.614v1.775h-2.786V363.4h-2.067v-10.867h-2.762z" transform="translate(12.103 -350.557)"/>
                <path id="패스_47" data-name="패스 47" class="cls-1" d="M184.335 350.758h2.437l4.67 9.111v-9.111h1.728l-.038 12.642H191.2l-5.136-10.123-.035 10.123H184.3z" transform="translate(-70.266 -350.557)"/>
                <path id="패스_48" data-name="패스 48" class="cls-1" d="M210.255 350.758h2.435l4.676 9.111v-9.111h1.726l-.038 12.642h-1.934l-5.139-10.123-.035 10.123h-1.728z" transform="translate(-25.526 -350.557)"/>
                <path id="패스_49" data-name="패스 49" class="cls-1" d="M214.663 350.758h2.067l-.03 12.642h-2.075z" transform="translate(-17.922 -350.557)"/>
                <path id="패스_50" data-name="패스 50" class="cls-1" d="M230.661 350.758h2.069l-.035 12.642h-2.067z" transform="translate(9.709 -350.557)"/>
                <path id="패스_51" data-name="패스 51" class="cls-1" d="M163.048 350.758h2.064l-.035 12.642h-2.061z" transform="translate(-107.009 -350.557)"/>
                <path id="패스_52" data-name="패스 52" class="cls-1" d="M170.66 350.758h2.064l-.041 12.642h-2.061z" transform="translate(-93.877 -350.557)"/>
                <path id="패스_53" data-name="패스 53" class="cls-1" d="M201.128 357.238a8.488 8.488 0 0 1-1.145 4.853 3.863 3.863 0 0 1-3.353 1.641 3.791 3.791 0 0 1-3.31-1.636 10.747 10.747 0 0 1-.008-9.692 4.2 4.2 0 0 1 6.66-.014 8.383 8.383 0 0 1 1.156 4.848zm-2.053.008a10.115 10.115 0 0 0-.54-3.689 2 2 0 0 0-3.787.008 10.081 10.081 0 0 0-.543 3.681 10.422 10.422 0 0 0 .532 3.661 1.888 1.888 0 0 0 1.892 1.366 1.95 1.95 0 0 0 1.9-1.325 10.052 10.052 0 0 0 .546-3.702z" transform="translate(-56.695 -350.557)"/>
                <path id="패스_54" data-name="패스 54" class="cls-1" d="M215.106 357.124v-.055h-.006l-.044-6.311H213l.033 7.227a8.739 8.739 0 0 1-.521 2.8 1.959 1.959 0 0 1-1.9 1.325 1.873 1.873 0 0 1-1.889-1.369 8.874 8.874 0 0 1-.507-2.764l.033-7.216h-2.069l-.035 6.311v.065a8.355 8.355 0 0 0 1.159 4.8 3.788 3.788 0 0 0 3.3 1.636 3.881 3.881 0 0 0 3.361-1.641 8.351 8.351 0 0 0 1.14-4.6l.005-.005z" transform="translate(-32.569 -350.557)"/>
                <path id="패스_55" data-name="패스 55" class="cls-1" d="M196.1 350.758h2.44l4.67 9.111v-9.111h1.728L204.9 363.4h-1.927l-5.136-10.123-.038 10.123h-1.739z" transform="translate(-49.965 -350.557)"/>
                <path id="패스_56" data-name="패스 56" class="cls-1" d="M149.347 350.758h2.315l3.356 12.642h-2.094l-.782-3.171h-3.659l-.911 3.171h-1.838zm2.385 7.822-1.281-5.213-1.5 5.213z" transform="translate(-136.839 -350.557)"/>
                <path id="패스_57" data-name="패스 57" class="cls-1" d="M184.079 350.758h2.321l3.348 12.642h-2.091l-.785-3.171h-3.65l-.922 3.171h-1.837zm2.38 7.822-1.279-5.213-1.5 5.213z" transform="translate(-76.888 -350.557)"/>
                <path id="패스_58" data-name="패스 58" class="cls-1" d="M223.625 350.758h1.837l-3.606 12.642h-2.323l-3.345-12.642h2.086l2.478 10.027z" transform="translate(-15.218 -350.557)"/>
                <path id="패스_59" data-name="패스 59" class="cls-1" d="M160.065 350.758h2.061v10.87h4.374v1.772h-6.48z" transform="translate(-112.173 -350.557)"/>
                <g id="그룹_2361" data-name="그룹 2361" transform="translate(0 .201)">
                    <path id="패스_60" data-name="패스 60" class="cls-1" d="M150.193 363.02v-1.941a3.25 3.25 0 0 1-2.6 1.145 2.92 2.92 0 0 1-1.148-.305 2.767 2.767 0 0 1-1.044-.938 4.653 4.653 0 0 1-.649-1.546 8.711 8.711 0 0 1-.229-2.124 9.17 9.17 0 0 1 .232-2.156 5.317 5.317 0 0 1 .668-1.6 2.926 2.926 0 0 1 1.033-.99 2.538 2.538 0 0 1 1.107-.324 3.179 3.179 0 0 1 2.625 1.189v-2a3.5 3.5 0 0 0-.605-.305 4.835 4.835 0 0 0-.848-.262 5.252 5.252 0 0 0-3.361.346 4.384 4.384 0 0 0-1.548 1.3 6.309 6.309 0 0 0-1 2.094 11.343 11.343 0 0 0-.027 5.518 5.776 5.776 0 0 0 .949 1.977 3.907 3.907 0 0 0 1.489 1.213 4.616 4.616 0 0 0 1.968.412 6.633 6.633 0 0 0 1.584-.131 6.548 6.548 0 0 0 1.404-.572z" transform="translate(-142.472 -350.758)"/>
                </g>
                <g id="그룹_2362" data-name="그룹 2362" transform="translate(60.267 .201)">
                    <path id="패스_61" data-name="패스 61" class="cls-1" d="M172.3 363.02v-1.941a3.257 3.257 0 0 1-2.6 1.145 2.907 2.907 0 0 1-1.145-.305 2.787 2.787 0 0 1-1.044-.938 4.712 4.712 0 0 1-.654-1.546 10.115 10.115 0 0 1 .011-4.28 5.246 5.246 0 0 1 .665-1.6 2.957 2.957 0 0 1 1.036-.99 2.527 2.527 0 0 1 1.1-.324 3.179 3.179 0 0 1 2.625 1.189v-2a3.277 3.277 0 0 0-.611-.305 4.922 4.922 0 0 0-.842-.262 5.258 5.258 0 0 0-3.362.346 4.384 4.384 0 0 0-1.549 1.3 6.591 6.591 0 0 0-1.006 2.094 10.2 10.2 0 0 0-.354 2.8 9.978 9.978 0 0 0 .333 2.715 5.675 5.675 0 0 0 .946 1.977 3.924 3.924 0 0 0 1.494 1.213 4.566 4.566 0 0 0 1.958.412 5.133 5.133 0 0 0 2.993-.7z" transform="translate(-164.578 -350.758)"/>
                </g>
                <path id="패스_62" data-name="패스 62" class="cls-1" d="M178.2 350.758h-2.473l-4.294 6.211h-.144l.069.109-.069.1h.144l4.294 6.215h2.473l-4.369-6.319z" transform="translate(-92.728 -350.557)"/>
                <path id="패스_63" data-name="패스 63" class="cls-1" d="M205.021 363.675a4.451 4.451 0 0 1-3.751-1.69 7.548 7.548 0 0 1-1.341-4.659c.019-3.991 2.1-6.568 5.316-6.568a5.056 5.056 0 0 1 2.546.6l.09.054-.575 2.056-.166-.245a2.213 2.213 0 0 0-1.9-.643c-2.192 0-3.55 1.778-3.55 4.635s1.33 4.678 3.391 4.678a3.408 3.408 0 0 0 1.281-.215l.008-3.149h-1.783l.016-1.914 3.5-.011-.027 6.516-.109.022a6.69 6.69 0 0 1-.289.079 9.74 9.74 0 0 1-2.657.454z" transform="translate(-43.287 -350.557)"/>
            </g>
        </g>
        <g id="그룹_2365" data-name="그룹 2365" transform="translate(240.013 286.257)">
            <path id="패스_64" data-name="패스 64" class="cls-2" d="M196.188 323.1v-.178c0-.524-.142-.783-.9-.783h-.414v1.727h.4c.713-.004.914-.253.914-.766z" transform="translate(-146.572 -258.21)"/>
            <path id="패스_65" data-name="패스 65" class="cls-2" d="m202.634 320.327.372-2.891a30.835 30.835 0 0 1-4.126 2.416 19.877 19.877 0 0 0-7.344 6.4 19.187 19.187 0 0 1 7.884-4.508 13.812 13.812 0 0 0 3.214-1.417z" transform="translate(-154.037 -268.707)"/>
            <path id="패스_66" data-name="패스 66" class="cls-2" d="M191.64 326.378a23.707 23.707 0 0 1 9.275-3.667 13.844 13.844 0 0 0 4.531-1.539l.31-3.082a16.5 16.5 0 0 1-6.225 3.483 18.068 18.068 0 0 0-7.891 4.805z" transform="translate(-153.805 -267.246)"/>
            <path id="패스_67" data-name="패스 67" class="cls-2" d="M191.74 322.566a16.425 16.425 0 0 1-8.026-3.716l.808 20.683c.7.757 3.46 3.547 6.8 4.214a27.23 27.23 0 0 1 13.207 6.322v-20.9c-1.137-1.077-6.412-5.688-12.789-6.603zm9.116 9.918c-.349.2-.572.061-1.083-.158a4.593 4.593 0 0 0-1.313-.408 8.806 8.806 0 0 0-1.4-.139 1.818 1.818 0 0 0-1.151.252c-.013.016-.048.052-.019.152l1.041 7.949a.471.471 0 0 1-.1.349c-.123.133-.23.259-2.125.259-1.989 0-2.108-.133-2.222-.275a.446.446 0 0 1-.1-.34l.86-7.8c.013-.136-.023-.2-.055-.22a1.892 1.892 0 0 0-1.478-.1 14.342 14.342 0 0 1-2.716.792.677.677 0 0 1-.317-.071c-.443-.3.113-2.338.475-3.5.142-.417.265-.815.65-.815a2.161 2.161 0 0 0 .239.042 20.51 20.51 0 0 0 4.708.64h.139a18.191 18.191 0 0 0 3.813-.556 5.21 5.21 0 0 1 .948-.178.488.488 0 0 1 .4.178.507.507 0 0 1 .068.139c1.075 3.568 1.026 3.601.738 3.808z" transform="translate(-171.51 -265.548)"/>
            <path id="패스_68" data-name="패스 68" class="cls-2" d="M189.618 322.711a24.03 24.03 0 0 1 9.3 3.661 18.353 18.353 0 0 0-7.926-4.8 16.661 16.661 0 0 1-6.225-3.483l.307 3.082a13.974 13.974 0 0 0 4.544 1.54z" transform="translate(-169.157 -267.246)"/>
            <path id="패스_69" data-name="패스 69" class="cls-2" d="M189.3 321.743a19.558 19.558 0 0 1 7.884 4.5 20.031 20.031 0 0 0-7.363-6.39 35.129 35.129 0 0 1-4.136-2.416l.4 2.891a13.4 13.4 0 0 0 3.215 1.415z" transform="translate(-167.107 -268.707)"/>
            <path id="패스_70" data-name="패스 70" class="cls-2" d="M189.834 319.22a1.809 1.809 0 1 0 1.821-1.814 1.816 1.816 0 0 0-1.821 1.814z" transform="translate(-157.839 -268.774)"/>
            <path id="패스_71" data-name="패스 71" class="cls-2" d="M190.634 329.177v20.887a27.181 27.181 0 0 1 13.155-6.306c3.366-.666 6.164-3.4 6.9-4.168l.734-20.745a16.342 16.342 0 0 1-8.026 3.732c-6.397.915-11.618 5.523-12.763 6.6zm8.767-.6h3.124v.85h-2.154v1.4h1.85v.873h-1.85v1.436h2.267v.9H199.4zm-4.5.006h1l.466 1.662.517 2.551.495-2.561.459-1.653h1.009l-1.455 5.449h-1.025zm5.3 10.248c0 1.135-.682 1.669-1.83 1.669s-1.766-.534-1.766-1.669v-3.809h.97v3.771c0 .511.22.844.8.844a.762.762 0 0 0 .85-.844v-3.771h.98zm5.077 1.607h-.978v-1.9l.1-1.559-1.077 2.183h-.223l-1.08-2.183.11 1.559v1.9h-.964V335h.935l1.109 2.419 1.116-2.419h.947zm1.416-10.232v.278a1.31 1.31 0 0 1-.935 1.468l1.187 2.076h-1.136l-1.09-1.914h-.356v1.914h-.97v-5.452h1.365c1.31.003 1.931.497 1.931 1.632z" transform="translate(-156.052 -265.559)"/>
            <path id="패스_72" data-name="패스 72" class="cls-2" d="m244.244 318.451-27.267-15.325a7.35 7.35 0 0 0-6.506 0l-27.277 15.325a7.088 7.088 0 0 0-3.253 5.556v50.467a7.037 7.037 0 0 0 3.253 5.549l27.277 15.335a7.35 7.35 0 0 0 6.506 0l27.267-15.335a7.034 7.034 0 0 0 3.266-5.549v-50.467a7.085 7.085 0 0 0-3.266-5.556zm-8.123 58.3a.806.806 0 0 1-.194.495c-.133.165-3.525 3.981-7.932 4.864-9.4 1.876-13.284 6.949-13.4 7.144a1.029 1.029 0 0 1-.828.53 1.231 1.231 0 0 1-.831-.53c-.129-.2-4.084-5.268-13.478-7.144-4.417-.883-7.726-4.776-7.878-4.951a.853.853 0 0 1-.178-.459l-.9-22.908a.8.8 0 0 1 .5-.753.762.762 0 0 1 .873.226 15.686 15.686 0 0 0 2.551 2.16l-.4-3.9a.636.636 0 0 1 .4-.669.672.672 0 0 1 .776.165 16.467 16.467 0 0 0 2.471 2.163l-.427-3.234a.533.533 0 0 1 .262-.556.605.605 0 0 1 .634.045 30.3 30.3 0 0 0 5.006 3.066c6.209 3.014 9.417 8.961 10.594 11.629 1.154-2.668 4.324-8.615 10.549-11.629a30.617 30.617 0 0 0 5.019-3.066.56.56 0 0 1 .9.511l-.44 3.234a15.634 15.634 0 0 0 2.474-2.163.681.681 0 0 1 .783-.165.657.657 0 0 1 .4.669l-.4 3.9a15.557 15.557 0 0 0 2.548-2.16.763.763 0 0 1 .87-.226.779.779 0 0 1 .495.753zM198.389 340.1c2.241 0 2.807-.938 2.807-2.652h3.095c0 3.806-1.782 5.381-5.9 5.381-4.088 0-5.746-1.575-5.746-5.148v-7.017c0-3.661 1.578-5.158 5.746-5.158s5.9 1.533 5.9 5.358H201.2c0-1.678-.395-2.623-2.807-2.623-2.235 0-2.652.944-2.652 2.584v6.694c-.004 1.645.413 2.581 2.648 2.581zm13.941-7.312 4.534-7.263h3.625l-5.64 8.631 6.144 8.641h-3.767l-4.86-6.936h-.883v6.939h-3.069v-14.515h-1.167v-2.758h4.265v7.263zm4.825 20.024a3.413 3.413 0 1 1-3.4-3.405 3.409 3.409 0 0 1 3.399 3.407zm12.253-12.628a2.424 2.424 0 0 0 2.7-2.681v-11.976h3.114v12.14c0 3.567-2.192 5.271-5.811 5.271-3.638 0-5.653-1.7-5.653-5.271v-9.381h-1.18v-2.758h4.262V337.5c-.004 1.641.731 2.686 2.567 2.686zm13.876 2.577h-2.141v-15.866a4.889 4.889 0 0 0-2.2-3.755l-23.001-12.94a5.115 5.115 0 0 0-4.43 0l-23.019 12.94a4.91 4.91 0 0 0-2.2 3.755v15.868h-2.128v-15.868a6.991 6.991 0 0 1 3.292-5.627l23-12.926a7.343 7.343 0 0 1 6.542 0l23.012 12.926a7.056 7.056 0 0 1 3.276 5.627z" transform="translate(-179.94 -302.367)"/>
        </g>
    </g>
</svg>
